%TF.GenerationSoftware,KiCad,Pcbnew,8.0.6*%
%TF.CreationDate,2024-11-14T00:00:25+01:00*%
%TF.ProjectId,CameraSlider,43616d65-7261-4536-9c69-6465722e6b69,rev?*%
%TF.SameCoordinates,Original*%
%TF.FileFunction,Soldermask,Bot*%
%TF.FilePolarity,Negative*%
%FSLAX46Y46*%
G04 Gerber Fmt 4.6, Leading zero omitted, Abs format (unit mm)*
G04 Created by KiCad (PCBNEW 8.0.6) date 2024-11-14 00:00:25*
%MOMM*%
%LPD*%
G01*
G04 APERTURE LIST*
%ADD10O,1.400000X1.400000*%
%ADD11C,1.400000*%
%ADD12O,1.700000X1.700000*%
%ADD13R,1.700000X1.700000*%
%ADD14C,1.600000*%
%ADD15R,1.600000X1.600000*%
%ADD16R,1.524000X1.524000*%
%ADD17C,1.524000*%
%ADD18O,1.600000X1.600000*%
G04 APERTURE END LIST*
D10*
%TO.C,R2*%
X137940000Y-106920000D03*
D11*
X137940000Y-114540000D03*
%TD*%
D10*
%TO.C,R1*%
X137940000Y-95490000D03*
D11*
X137940000Y-103110000D03*
%TD*%
D12*
%TO.C,J7*%
X188740000Y-96760000D03*
D13*
X188740000Y-94220000D03*
%TD*%
D12*
%TO.C,J4*%
X143020000Y-101840000D03*
X143020000Y-99300000D03*
X143020000Y-96760000D03*
D13*
X143020000Y-94220000D03*
%TD*%
D12*
%TO.C,J1*%
X188740000Y-106920000D03*
D13*
X188740000Y-104380000D03*
%TD*%
D14*
%TO.C,C3*%
X137980000Y-119620000D03*
D15*
X140480000Y-119620000D03*
%TD*%
D14*
%TO.C,C2*%
X191280000Y-119620000D03*
D15*
X188780000Y-119620000D03*
%TD*%
D14*
%TO.C,C1*%
X180380000Y-53340000D03*
X182880000Y-53340000D03*
%TD*%
D16*
%TO.C,U1*%
X183100000Y-88660000D03*
D17*
X180600000Y-88660000D03*
X178100000Y-88660000D03*
X175600000Y-88660000D03*
X173100000Y-88660000D03*
X170600000Y-88660000D03*
X168100000Y-88660000D03*
X165600000Y-88660000D03*
X163100000Y-88660000D03*
X160600000Y-88660000D03*
X158100000Y-88660000D03*
X155600000Y-88660000D03*
X153100000Y-88660000D03*
X150600000Y-88660000D03*
X148100000Y-88660000D03*
X148100000Y-58660000D03*
X150600000Y-58660000D03*
X153100000Y-58660000D03*
X155600000Y-58660000D03*
X158100000Y-58660000D03*
X160600000Y-58660000D03*
X163100000Y-58660000D03*
X165600000Y-58660000D03*
X168100000Y-58660000D03*
X170600000Y-58660000D03*
X173100000Y-58660000D03*
X175600000Y-58660000D03*
X178100000Y-58660000D03*
X180600000Y-58660000D03*
X183100000Y-58660000D03*
%TD*%
D13*
%TO.C,J3*%
X181120000Y-124460000D03*
D12*
X178580000Y-124460000D03*
X176040000Y-124460000D03*
X173500000Y-124460000D03*
%TD*%
D13*
%TO.C,J2*%
X158260000Y-124460000D03*
D12*
X155720000Y-124460000D03*
X153180000Y-124460000D03*
X150640000Y-124460000D03*
%TD*%
D15*
%TO.C,A2*%
X183660000Y-117080000D03*
D18*
X183660000Y-114540000D03*
X183660000Y-112000000D03*
X183660000Y-109460000D03*
X183660000Y-106920000D03*
X183660000Y-104380000D03*
X183660000Y-101840000D03*
X183660000Y-99300000D03*
X170960000Y-99300000D03*
X170960000Y-101840000D03*
X170960000Y-104380000D03*
X170960000Y-106920000D03*
X170960000Y-109460000D03*
X170960000Y-112000000D03*
X170960000Y-114540000D03*
X170960000Y-117080000D03*
%TD*%
D15*
%TO.C,A1*%
X160800000Y-117080000D03*
D18*
X160800000Y-114540000D03*
X160800000Y-112000000D03*
X160800000Y-109460000D03*
X160800000Y-106920000D03*
X160800000Y-104380000D03*
X160800000Y-101840000D03*
X160800000Y-99300000D03*
X148100000Y-99300000D03*
X148100000Y-101840000D03*
X148100000Y-104380000D03*
X148100000Y-106920000D03*
X148100000Y-109460000D03*
X148100000Y-112000000D03*
X148100000Y-114540000D03*
X148100000Y-117080000D03*
%TD*%
M02*
