M48
; DRILL file {KiCad 8.0.6} date 2024-11-14T00:00:22+0100
; FORMAT={-:-/ absolute / inch / decimal}
; #@! TF.CreationDate,2024-11-14T00:00:22+01:00
; #@! TF.GenerationSoftware,Kicad,Pcbnew,8.0.6
; #@! TF.FileFunction,Plated,1,2,PTH
FMAT,2
INCH
; #@! TA.AperFunction,Plated,PTH,ViaDrill
T1C0.0118
; #@! TA.AperFunction,Plated,PTH,ComponentDrill
T2C0.0276
; #@! TA.AperFunction,Plated,PTH,ComponentDrill
T3C0.0300
; #@! TA.AperFunction,Plated,PTH,ComponentDrill
T4C0.0315
; #@! TA.AperFunction,Plated,PTH,ComponentDrill
T5C0.0394
%
G90
G05
T1
X6.6Y-3.7
X6.6Y-3.9
X6.6Y-4.1
T2
X5.4307Y-3.7594
X5.4307Y-4.0594
X5.4307Y-4.2094
X5.4307Y-4.5094
T3
X5.8307Y-2.3094
X5.8307Y-3.4906
X5.9291Y-2.3094
X5.9291Y-3.4906
X6.0276Y-2.3094
X6.0276Y-3.4906
X6.126Y-2.3094
X6.126Y-3.4906
X6.2244Y-2.3094
X6.2244Y-3.4906
X6.3228Y-2.3094
X6.3228Y-3.4906
X6.4213Y-2.3094
X6.4213Y-3.4906
X6.5197Y-2.3094
X6.5197Y-3.4906
X6.6181Y-2.3094
X6.6181Y-3.4906
X6.7165Y-2.3094
X6.7165Y-3.4906
X6.815Y-2.3094
X6.815Y-3.4906
X6.9134Y-2.3094
X6.9134Y-3.4906
X7.0118Y-2.3094
X7.0118Y-3.4906
X7.1102Y-2.3094
X7.1102Y-3.4906
X7.2087Y-2.3094
X7.2087Y-3.4906
T4
X5.4323Y-4.7094
X5.5307Y-4.7094
X5.8307Y-3.9094
X5.8307Y-4.0094
X5.8307Y-4.1094
X5.8307Y-4.2094
X5.8307Y-4.3094
X5.8307Y-4.4094
X5.8307Y-4.5094
X5.8307Y-4.6094
X6.3307Y-3.9094
X6.3307Y-4.0094
X6.3307Y-4.1094
X6.3307Y-4.2094
X6.3307Y-4.3094
X6.3307Y-4.4094
X6.3307Y-4.5094
X6.3307Y-4.6094
X6.7307Y-3.9094
X6.7307Y-4.0094
X6.7307Y-4.1094
X6.7307Y-4.2094
X6.7307Y-4.3094
X6.7307Y-4.4094
X6.7307Y-4.5094
X6.7307Y-4.6094
X7.1016Y-2.1
X7.2Y-2.1
X7.2307Y-3.9094
X7.2307Y-4.0094
X7.2307Y-4.1094
X7.2307Y-4.2094
X7.2307Y-4.3094
X7.2307Y-4.4094
X7.2307Y-4.5094
X7.2307Y-4.6094
X7.4323Y-4.7094
X7.5307Y-4.7094
T5
X5.6307Y-3.7094
X5.6307Y-3.8094
X5.6307Y-3.9094
X5.6307Y-4.0094
X5.9307Y-4.9
X6.0307Y-4.9
X6.1307Y-4.9
X6.2307Y-4.9
X6.8307Y-4.9
X6.9307Y-4.9
X7.0307Y-4.9
X7.1307Y-4.9
X7.4307Y-3.7094
X7.4307Y-3.8094
X7.4307Y-4.1094
X7.4307Y-4.2094
M30
