%TF.GenerationSoftware,KiCad,Pcbnew,8.0.6*%
%TF.CreationDate,2024-11-14T00:00:25+01:00*%
%TF.ProjectId,CameraSlider,43616d65-7261-4536-9c69-6465722e6b69,rev?*%
%TF.SameCoordinates,Original*%
%TF.FileFunction,Copper,L2,Bot*%
%TF.FilePolarity,Positive*%
%FSLAX46Y46*%
G04 Gerber Fmt 4.6, Leading zero omitted, Abs format (unit mm)*
G04 Created by KiCad (PCBNEW 8.0.6) date 2024-11-14 00:00:25*
%MOMM*%
%LPD*%
G01*
G04 APERTURE LIST*
%TA.AperFunction,ComponentPad*%
%ADD10O,1.400000X1.400000*%
%TD*%
%TA.AperFunction,ComponentPad*%
%ADD11C,1.400000*%
%TD*%
%TA.AperFunction,ComponentPad*%
%ADD12O,1.700000X1.700000*%
%TD*%
%TA.AperFunction,ComponentPad*%
%ADD13R,1.700000X1.700000*%
%TD*%
%TA.AperFunction,ComponentPad*%
%ADD14C,1.600000*%
%TD*%
%TA.AperFunction,ComponentPad*%
%ADD15R,1.600000X1.600000*%
%TD*%
%TA.AperFunction,ComponentPad*%
%ADD16R,1.524000X1.524000*%
%TD*%
%TA.AperFunction,ComponentPad*%
%ADD17C,1.524000*%
%TD*%
%TA.AperFunction,ComponentPad*%
%ADD18O,1.600000X1.600000*%
%TD*%
%TA.AperFunction,ViaPad*%
%ADD19C,0.600000*%
%TD*%
%TA.AperFunction,Conductor*%
%ADD20C,0.200000*%
%TD*%
%TA.AperFunction,Conductor*%
%ADD21C,0.500000*%
%TD*%
G04 APERTURE END LIST*
D10*
%TO.P,R2,2*%
%TO.N,Net-(J4-Pin_3)*%
X137940000Y-106920000D03*
D11*
%TO.P,R2,1*%
%TO.N,GND*%
X137940000Y-114540000D03*
%TD*%
D10*
%TO.P,R1,2*%
%TO.N,Net-(J4-Pin_1)*%
X137940000Y-95490000D03*
D11*
%TO.P,R1,1*%
%TO.N,+5V*%
X137940000Y-103110000D03*
%TD*%
D12*
%TO.P,J7,2,Pin_2*%
%TO.N,+12V*%
X188740000Y-96760000D03*
D13*
%TO.P,J7,1,Pin_1*%
%TO.N,GND*%
X188740000Y-94220000D03*
%TD*%
D12*
%TO.P,J4,4,Pin_4*%
%TO.N,unconnected-(J4-Pin_4-Pad4)*%
X143020000Y-101840000D03*
%TO.P,J4,3,Pin_3*%
%TO.N,Net-(J4-Pin_3)*%
X143020000Y-99300000D03*
%TO.P,J4,2,Pin_2*%
%TO.N,Switch*%
X143020000Y-96760000D03*
D13*
%TO.P,J4,1,Pin_1*%
%TO.N,Net-(J4-Pin_1)*%
X143020000Y-94220000D03*
%TD*%
D12*
%TO.P,J1,2,Pin_2*%
%TO.N,+5V*%
X188740000Y-106920000D03*
D13*
%TO.P,J1,1,Pin_1*%
%TO.N,GND*%
X188740000Y-104380000D03*
%TD*%
D14*
%TO.P,C3,2*%
%TO.N,GND*%
X137980000Y-119620000D03*
D15*
%TO.P,C3,1*%
%TO.N,+12V*%
X140480000Y-119620000D03*
%TD*%
D14*
%TO.P,C2,2*%
%TO.N,GND*%
X191280000Y-119620000D03*
D15*
%TO.P,C2,1*%
%TO.N,+5V*%
X188780000Y-119620000D03*
%TD*%
D14*
%TO.P,C1,2*%
%TO.N,GND*%
X180380000Y-53340000D03*
%TO.P,C1,1*%
%TO.N,+3V3*%
X182880000Y-53340000D03*
%TD*%
D16*
%TO.P,U1,1,VIN*%
%TO.N,+5V*%
X183100000Y-88660000D03*
D17*
%TO.P,U1,2,GND*%
%TO.N,GND*%
X180600000Y-88660000D03*
%TO.P,U1,3,D13*%
%TO.N,Switch*%
X178100000Y-88660000D03*
%TO.P,U1,4,D12*%
%TO.N,EN*%
X175600000Y-88660000D03*
%TO.P,U1,5,D14*%
%TO.N,M1_RST*%
X173100000Y-88660000D03*
%TO.P,U1,6,D27*%
%TO.N,M1_SLP*%
X170600000Y-88660000D03*
%TO.P,U1,7,D26*%
%TO.N,unconnected-(U1-D26-Pad7)*%
X168100000Y-88660000D03*
%TO.P,U1,8,D25*%
%TO.N,unconnected-(U1-D25-Pad8)*%
X165600000Y-88660000D03*
%TO.P,U1,9,D33*%
%TO.N,M2_DIR*%
X163100000Y-88660000D03*
%TO.P,U1,10,D32*%
%TO.N,M2_STEP*%
X160600000Y-88660000D03*
%TO.P,U1,11,D35*%
%TO.N,M1_DIR*%
X158100000Y-88660000D03*
%TO.P,U1,12,D34*%
%TO.N,M1_STEP*%
X155600000Y-88660000D03*
%TO.P,U1,13,VN*%
%TO.N,unconnected-(U1-VN-Pad13)*%
X153100000Y-88660000D03*
%TO.P,U1,14,VP*%
%TO.N,unconnected-(U1-VP-Pad14)*%
X150600000Y-88660000D03*
%TO.P,U1,15,EN*%
%TO.N,unconnected-(U1-EN-Pad15)*%
X148100000Y-88660000D03*
%TO.P,U1,16,D23*%
%TO.N,unconnected-(U1-D23-Pad16)*%
X148100000Y-58660000D03*
%TO.P,U1,17,D22*%
%TO.N,unconnected-(U1-D22-Pad17)*%
X150600000Y-58660000D03*
%TO.P,U1,18,TX0*%
%TO.N,unconnected-(U1-TX0-Pad18)*%
X153100000Y-58660000D03*
%TO.P,U1,19,RX0*%
%TO.N,unconnected-(U1-RX0-Pad19)*%
X155600000Y-58660000D03*
%TO.P,U1,20,D21*%
%TO.N,unconnected-(U1-D21-Pad20)*%
X158100000Y-58660000D03*
%TO.P,U1,21,D19*%
%TO.N,unconnected-(U1-D19-Pad21)*%
X160600000Y-58660000D03*
%TO.P,U1,22,D18*%
%TO.N,unconnected-(U1-D18-Pad22)*%
X163100000Y-58660000D03*
%TO.P,U1,23,D5*%
%TO.N,unconnected-(U1-D5-Pad23)*%
X165600000Y-58660000D03*
%TO.P,U1,24,D17*%
%TO.N,unconnected-(U1-D17-Pad24)*%
X168100000Y-58660000D03*
%TO.P,U1,25,D16*%
%TO.N,unconnected-(U1-D16-Pad25)*%
X170600000Y-58660000D03*
%TO.P,U1,26,D4*%
%TO.N,unconnected-(U1-D4-Pad26)*%
X173100000Y-58660000D03*
%TO.P,U1,27,D2*%
%TO.N,unconnected-(U1-D2-Pad27)*%
X175600000Y-58660000D03*
%TO.P,U1,28,D15*%
%TO.N,unconnected-(U1-D15-Pad28)*%
X178100000Y-58660000D03*
%TO.P,U1,29,GND*%
%TO.N,GND*%
X180600000Y-58660000D03*
%TO.P,U1,30,3V3*%
%TO.N,+3V3*%
X183100000Y-58660000D03*
%TD*%
D13*
%TO.P,J3,1,Pin_1*%
%TO.N,M2_1B*%
X181120000Y-124460000D03*
D12*
%TO.P,J3,2,Pin_2*%
%TO.N,M2_1A*%
X178580000Y-124460000D03*
%TO.P,J3,3,Pin_3*%
%TO.N,M2_2A*%
X176040000Y-124460000D03*
%TO.P,J3,4,Pin_4*%
%TO.N,M2_2B*%
X173500000Y-124460000D03*
%TD*%
D13*
%TO.P,J2,1,Pin_1*%
%TO.N,M1_1B*%
X158260000Y-124460000D03*
D12*
%TO.P,J2,2,Pin_2*%
%TO.N,M1_1A*%
X155720000Y-124460000D03*
%TO.P,J2,3,Pin_3*%
%TO.N,M1_2A*%
X153180000Y-124460000D03*
%TO.P,J2,4,Pin_4*%
%TO.N,M1_2B*%
X150640000Y-124460000D03*
%TD*%
D15*
%TO.P,A2,1,GND*%
%TO.N,GND*%
X183660000Y-117080000D03*
D18*
%TO.P,A2,2,VDD*%
%TO.N,+5V*%
X183660000Y-114540000D03*
%TO.P,A2,3,1B*%
%TO.N,M2_1B*%
X183660000Y-112000000D03*
%TO.P,A2,4,1A*%
%TO.N,M2_1A*%
X183660000Y-109460000D03*
%TO.P,A2,5,2A*%
%TO.N,M2_2A*%
X183660000Y-106920000D03*
%TO.P,A2,6,2B*%
%TO.N,M2_2B*%
X183660000Y-104380000D03*
%TO.P,A2,7,GND*%
%TO.N,GND*%
X183660000Y-101840000D03*
%TO.P,A2,8,VMOT*%
%TO.N,+12V*%
X183660000Y-99300000D03*
%TO.P,A2,9,~{ENABLE}*%
%TO.N,EN*%
X170960000Y-99300000D03*
%TO.P,A2,10,MS1*%
%TO.N,unconnected-(A2-MS1-Pad10)*%
X170960000Y-101840000D03*
%TO.P,A2,11,MS2*%
%TO.N,unconnected-(A2-MS2-Pad11)*%
X170960000Y-104380000D03*
%TO.P,A2,12,MS3*%
%TO.N,unconnected-(A2-MS3-Pad12)*%
X170960000Y-106920000D03*
%TO.P,A2,13,~{RESET}*%
%TO.N,M1_RST*%
X170960000Y-109460000D03*
%TO.P,A2,14,~{SLEEP}*%
%TO.N,M1_SLP*%
X170960000Y-112000000D03*
%TO.P,A2,15,STEP*%
%TO.N,M2_STEP*%
X170960000Y-114540000D03*
%TO.P,A2,16,DIR*%
%TO.N,M2_DIR*%
X170960000Y-117080000D03*
%TD*%
D15*
%TO.P,A1,1,GND*%
%TO.N,GND*%
X160800000Y-117080000D03*
D18*
%TO.P,A1,2,VDD*%
%TO.N,+5V*%
X160800000Y-114540000D03*
%TO.P,A1,3,1B*%
%TO.N,M1_1B*%
X160800000Y-112000000D03*
%TO.P,A1,4,1A*%
%TO.N,M1_1A*%
X160800000Y-109460000D03*
%TO.P,A1,5,2A*%
%TO.N,M1_2A*%
X160800000Y-106920000D03*
%TO.P,A1,6,2B*%
%TO.N,M1_2B*%
X160800000Y-104380000D03*
%TO.P,A1,7,GND*%
%TO.N,GND*%
X160800000Y-101840000D03*
%TO.P,A1,8,VMOT*%
%TO.N,+12V*%
X160800000Y-99300000D03*
%TO.P,A1,9,~{ENABLE}*%
%TO.N,EN*%
X148100000Y-99300000D03*
%TO.P,A1,10,MS1*%
%TO.N,unconnected-(A1-MS1-Pad10)*%
X148100000Y-101840000D03*
%TO.P,A1,11,MS2*%
%TO.N,unconnected-(A1-MS2-Pad11)*%
X148100000Y-104380000D03*
%TO.P,A1,12,MS3*%
%TO.N,unconnected-(A1-MS3-Pad12)*%
X148100000Y-106920000D03*
%TO.P,A1,13,~{RESET}*%
%TO.N,M1_RST*%
X148100000Y-109460000D03*
%TO.P,A1,14,~{SLEEP}*%
%TO.N,M1_SLP*%
X148100000Y-112000000D03*
%TO.P,A1,15,STEP*%
%TO.N,M1_STEP*%
X148100000Y-114540000D03*
%TO.P,A1,16,DIR*%
%TO.N,M1_DIR*%
X148100000Y-117080000D03*
%TD*%
D19*
%TO.N,GND*%
X167640000Y-93980000D03*
X167640000Y-99060000D03*
X167640000Y-104140000D03*
%TD*%
D20*
%TO.N,M1_SLP*%
X149200000Y-113100000D02*
X148100000Y-112000000D01*
X169860000Y-113100000D02*
X149200000Y-113100000D01*
X170960000Y-112000000D02*
X169860000Y-113100000D01*
%TO.N,+5V*%
X170085685Y-113440000D02*
X182560000Y-113440000D01*
X170025685Y-113500000D02*
X170085685Y-113440000D01*
X161840000Y-113500000D02*
X170025685Y-113500000D01*
X160800000Y-114540000D02*
X161840000Y-113500000D01*
X182560000Y-113440000D02*
X183660000Y-114540000D01*
X159760000Y-113500000D02*
X160800000Y-114540000D01*
X149034314Y-113500000D02*
X159760000Y-113500000D01*
X147644365Y-113440000D02*
X148974314Y-113440000D01*
X142240000Y-118844365D02*
X147644365Y-113440000D01*
X142240000Y-120040000D02*
X142240000Y-118844365D01*
X148974314Y-113440000D02*
X149034314Y-113500000D01*
X141560000Y-120720000D02*
X142240000Y-120040000D01*
X136940000Y-107334214D02*
X139380000Y-109774214D01*
X139380000Y-109774214D02*
X139380000Y-120720000D01*
X136940000Y-104110000D02*
X136940000Y-107334214D01*
X139380000Y-120720000D02*
X141560000Y-120720000D01*
X137940000Y-103110000D02*
X136940000Y-104110000D01*
%TO.N,+3V3*%
X183100000Y-53560000D02*
X182880000Y-53340000D01*
X183100000Y-58660000D02*
X183100000Y-53560000D01*
%TO.N,+5V*%
X188740000Y-119620000D02*
X188780000Y-119620000D01*
X183660000Y-114540000D02*
X188740000Y-119620000D01*
%TO.N,EN*%
X157710000Y-99527817D02*
X157242182Y-99060000D01*
X157242182Y-99060000D02*
X148340000Y-99060000D01*
X158582183Y-100400000D02*
X157710000Y-99527817D01*
X167320000Y-100400000D02*
X158582183Y-100400000D01*
X148340000Y-99060000D02*
X148100000Y-99300000D01*
X170960000Y-99300000D02*
X168420000Y-99300000D01*
X168420000Y-99300000D02*
X167320000Y-100400000D01*
%TO.N,Switch*%
X175870000Y-95910000D02*
X178100000Y-93680000D01*
X178100000Y-93680000D02*
X178100000Y-88660000D01*
X143870000Y-95910000D02*
X175870000Y-95910000D01*
X143020000Y-96760000D02*
X143870000Y-95910000D01*
%TO.N,EN*%
X172060000Y-100400000D02*
X170960000Y-99300000D01*
X189890000Y-97236346D02*
X186726346Y-100400000D01*
X189890000Y-96283654D02*
X189890000Y-97236346D01*
X181970000Y-95610000D02*
X189216346Y-95610000D01*
X179162000Y-88220105D02*
X179162000Y-92802000D01*
X178539895Y-87598000D02*
X179162000Y-88220105D01*
X186726346Y-100400000D02*
X172060000Y-100400000D01*
X177660105Y-87598000D02*
X178539895Y-87598000D01*
X176598105Y-88660000D02*
X177660105Y-87598000D01*
X179162000Y-92802000D02*
X181970000Y-95610000D01*
X175600000Y-88660000D02*
X176598105Y-88660000D01*
X189216346Y-95610000D02*
X189890000Y-96283654D01*
D21*
%TO.N,+12V*%
X186200000Y-99300000D02*
X188740000Y-96760000D01*
X183660000Y-99300000D02*
X186200000Y-99300000D01*
D20*
%TO.N,+5V*%
X188740000Y-109460000D02*
X183660000Y-114540000D01*
X188740000Y-106920000D02*
X188740000Y-109460000D01*
%TO.N,GND*%
X137940000Y-117080000D02*
X137980000Y-117120000D01*
X137980000Y-117120000D02*
X137980000Y-119620000D01*
X137940000Y-114540000D02*
X137940000Y-117080000D01*
D21*
%TO.N,+12V*%
X146850000Y-113250000D02*
X140480000Y-119620000D01*
X147582233Y-98050000D02*
X146850000Y-98782233D01*
X157010000Y-98050000D02*
X147582233Y-98050000D01*
X158260000Y-99300000D02*
X157010000Y-98050000D01*
X160800000Y-99300000D02*
X158260000Y-99300000D01*
X146850000Y-98782233D02*
X146850000Y-113250000D01*
X181120000Y-96760000D02*
X183660000Y-99300000D01*
X163340000Y-96760000D02*
X181120000Y-96760000D01*
X160800000Y-99300000D02*
X163340000Y-96760000D01*
D20*
%TO.N,M1_RST*%
X149200000Y-110560000D02*
X148100000Y-109460000D01*
X170960000Y-109460000D02*
X169860000Y-110560000D01*
X169860000Y-110560000D02*
X149200000Y-110560000D01*
%TD*%
%TA.AperFunction,Conductor*%
%TO.N,GND*%
G36*
X202642539Y-51320185D02*
G01*
X202688294Y-51372989D01*
X202699500Y-51424500D01*
X202699500Y-126375500D01*
X202679815Y-126442539D01*
X202627011Y-126488294D01*
X202575500Y-126499500D01*
X127624500Y-126499500D01*
X127557461Y-126479815D01*
X127511706Y-126427011D01*
X127500500Y-126375500D01*
X127500500Y-121920000D01*
X127982462Y-121920000D01*
X128002193Y-122321629D01*
X128002193Y-122321635D01*
X128002194Y-122321637D01*
X128061194Y-122719386D01*
X128158904Y-123109462D01*
X128294361Y-123488040D01*
X128294369Y-123488060D01*
X128466294Y-123851566D01*
X128466296Y-123851569D01*
X128673023Y-124196473D01*
X128912553Y-124519443D01*
X128912556Y-124519447D01*
X129182602Y-124817397D01*
X129480552Y-125087443D01*
X129480556Y-125087446D01*
X129803526Y-125326976D01*
X129886267Y-125376569D01*
X130148434Y-125533706D01*
X130511940Y-125705631D01*
X130511954Y-125705636D01*
X130511959Y-125705638D01*
X130646544Y-125753793D01*
X130890548Y-125841099D01*
X131280610Y-125938805D01*
X131678371Y-125997807D01*
X132080000Y-126017538D01*
X132481629Y-125997807D01*
X132879390Y-125938805D01*
X133269452Y-125841099D01*
X133648060Y-125705631D01*
X134011566Y-125533706D01*
X134356470Y-125326978D01*
X134626723Y-125126546D01*
X134679443Y-125087446D01*
X134679447Y-125087443D01*
X134679447Y-125087442D01*
X134679451Y-125087440D01*
X134977397Y-124817397D01*
X135247440Y-124519451D01*
X135291532Y-124460000D01*
X135291533Y-124459999D01*
X149284341Y-124459999D01*
X149284341Y-124460000D01*
X149304936Y-124695403D01*
X149304938Y-124695413D01*
X149366094Y-124923655D01*
X149366096Y-124923659D01*
X149366097Y-124923663D01*
X149446004Y-125095023D01*
X149465965Y-125137830D01*
X149465967Y-125137834D01*
X149574281Y-125292521D01*
X149601505Y-125331401D01*
X149768599Y-125498495D01*
X149865384Y-125566265D01*
X149962165Y-125634032D01*
X149962167Y-125634033D01*
X149962170Y-125634035D01*
X150176337Y-125733903D01*
X150404592Y-125795063D01*
X150581034Y-125810500D01*
X150639999Y-125815659D01*
X150640000Y-125815659D01*
X150640001Y-125815659D01*
X150698966Y-125810500D01*
X150875408Y-125795063D01*
X151103663Y-125733903D01*
X151317830Y-125634035D01*
X151511401Y-125498495D01*
X151678495Y-125331401D01*
X151808425Y-125145842D01*
X151863002Y-125102217D01*
X151932500Y-125095023D01*
X151994855Y-125126546D01*
X152011575Y-125145842D01*
X152141500Y-125331395D01*
X152141505Y-125331401D01*
X152308599Y-125498495D01*
X152405384Y-125566265D01*
X152502165Y-125634032D01*
X152502167Y-125634033D01*
X152502170Y-125634035D01*
X152716337Y-125733903D01*
X152944592Y-125795063D01*
X153121034Y-125810500D01*
X153179999Y-125815659D01*
X153180000Y-125815659D01*
X153180001Y-125815659D01*
X153238966Y-125810500D01*
X153415408Y-125795063D01*
X153643663Y-125733903D01*
X153857830Y-125634035D01*
X154051401Y-125498495D01*
X154218495Y-125331401D01*
X154348425Y-125145842D01*
X154403002Y-125102217D01*
X154472500Y-125095023D01*
X154534855Y-125126546D01*
X154551575Y-125145842D01*
X154681500Y-125331395D01*
X154681505Y-125331401D01*
X154848599Y-125498495D01*
X154945384Y-125566265D01*
X155042165Y-125634032D01*
X155042167Y-125634033D01*
X155042170Y-125634035D01*
X155256337Y-125733903D01*
X155484592Y-125795063D01*
X155661034Y-125810500D01*
X155719999Y-125815659D01*
X155720000Y-125815659D01*
X155720001Y-125815659D01*
X155778966Y-125810500D01*
X155955408Y-125795063D01*
X156183663Y-125733903D01*
X156397830Y-125634035D01*
X156591401Y-125498495D01*
X156713329Y-125376566D01*
X156774648Y-125343084D01*
X156844340Y-125348068D01*
X156900274Y-125389939D01*
X156917189Y-125420917D01*
X156966202Y-125552328D01*
X156966206Y-125552335D01*
X157052452Y-125667544D01*
X157052455Y-125667547D01*
X157167664Y-125753793D01*
X157167671Y-125753797D01*
X157302517Y-125804091D01*
X157302516Y-125804091D01*
X157309444Y-125804835D01*
X157362127Y-125810500D01*
X159157872Y-125810499D01*
X159217483Y-125804091D01*
X159352331Y-125753796D01*
X159467546Y-125667546D01*
X159553796Y-125552331D01*
X159604091Y-125417483D01*
X159610500Y-125357873D01*
X159610499Y-124459999D01*
X172144341Y-124459999D01*
X172144341Y-124460000D01*
X172164936Y-124695403D01*
X172164938Y-124695413D01*
X172226094Y-124923655D01*
X172226096Y-124923659D01*
X172226097Y-124923663D01*
X172306004Y-125095023D01*
X172325965Y-125137830D01*
X172325967Y-125137834D01*
X172434281Y-125292521D01*
X172461505Y-125331401D01*
X172628599Y-125498495D01*
X172725384Y-125566265D01*
X172822165Y-125634032D01*
X172822167Y-125634033D01*
X172822170Y-125634035D01*
X173036337Y-125733903D01*
X173264592Y-125795063D01*
X173441034Y-125810500D01*
X173499999Y-125815659D01*
X173500000Y-125815659D01*
X173500001Y-125815659D01*
X173558966Y-125810500D01*
X173735408Y-125795063D01*
X173963663Y-125733903D01*
X174177830Y-125634035D01*
X174371401Y-125498495D01*
X174538495Y-125331401D01*
X174668425Y-125145842D01*
X174723002Y-125102217D01*
X174792500Y-125095023D01*
X174854855Y-125126546D01*
X174871575Y-125145842D01*
X175001500Y-125331395D01*
X175001505Y-125331401D01*
X175168599Y-125498495D01*
X175265384Y-125566265D01*
X175362165Y-125634032D01*
X175362167Y-125634033D01*
X175362170Y-125634035D01*
X175576337Y-125733903D01*
X175804592Y-125795063D01*
X175981034Y-125810500D01*
X176039999Y-125815659D01*
X176040000Y-125815659D01*
X176040001Y-125815659D01*
X176098966Y-125810500D01*
X176275408Y-125795063D01*
X176503663Y-125733903D01*
X176717830Y-125634035D01*
X176911401Y-125498495D01*
X177078495Y-125331401D01*
X177208425Y-125145842D01*
X177263002Y-125102217D01*
X177332500Y-125095023D01*
X177394855Y-125126546D01*
X177411575Y-125145842D01*
X177541500Y-125331395D01*
X177541505Y-125331401D01*
X177708599Y-125498495D01*
X177805384Y-125566265D01*
X177902165Y-125634032D01*
X177902167Y-125634033D01*
X177902170Y-125634035D01*
X178116337Y-125733903D01*
X178344592Y-125795063D01*
X178521034Y-125810500D01*
X178579999Y-125815659D01*
X178580000Y-125815659D01*
X178580001Y-125815659D01*
X178638966Y-125810500D01*
X178815408Y-125795063D01*
X179043663Y-125733903D01*
X179257830Y-125634035D01*
X179451401Y-125498495D01*
X179573329Y-125376566D01*
X179634648Y-125343084D01*
X179704340Y-125348068D01*
X179760274Y-125389939D01*
X179777189Y-125420917D01*
X179826202Y-125552328D01*
X179826206Y-125552335D01*
X179912452Y-125667544D01*
X179912455Y-125667547D01*
X180027664Y-125753793D01*
X180027671Y-125753797D01*
X180162517Y-125804091D01*
X180162516Y-125804091D01*
X180169444Y-125804835D01*
X180222127Y-125810500D01*
X182017872Y-125810499D01*
X182077483Y-125804091D01*
X182212331Y-125753796D01*
X182327546Y-125667546D01*
X182413796Y-125552331D01*
X182464091Y-125417483D01*
X182470500Y-125357873D01*
X182470499Y-123562128D01*
X182464091Y-123502517D01*
X182462810Y-123499083D01*
X182413797Y-123367671D01*
X182413793Y-123367664D01*
X182327547Y-123252455D01*
X182327544Y-123252452D01*
X182212335Y-123166206D01*
X182212328Y-123166202D01*
X182077482Y-123115908D01*
X182077483Y-123115908D01*
X182017883Y-123109501D01*
X182017881Y-123109500D01*
X182017873Y-123109500D01*
X182017864Y-123109500D01*
X180222129Y-123109500D01*
X180222123Y-123109501D01*
X180162516Y-123115908D01*
X180027671Y-123166202D01*
X180027664Y-123166206D01*
X179912455Y-123252452D01*
X179912452Y-123252455D01*
X179826206Y-123367664D01*
X179826203Y-123367669D01*
X179777189Y-123499083D01*
X179735317Y-123555016D01*
X179669853Y-123579433D01*
X179601580Y-123564581D01*
X179573326Y-123543430D01*
X179451402Y-123421506D01*
X179451395Y-123421501D01*
X179257834Y-123285967D01*
X179257830Y-123285965D01*
X179257828Y-123285964D01*
X179043663Y-123186097D01*
X179043659Y-123186096D01*
X179043655Y-123186094D01*
X178815413Y-123124938D01*
X178815403Y-123124936D01*
X178580001Y-123104341D01*
X178579999Y-123104341D01*
X178344596Y-123124936D01*
X178344586Y-123124938D01*
X178116344Y-123186094D01*
X178116335Y-123186098D01*
X177902171Y-123285964D01*
X177902169Y-123285965D01*
X177708597Y-123421505D01*
X177541505Y-123588597D01*
X177411575Y-123774158D01*
X177356998Y-123817783D01*
X177287500Y-123824977D01*
X177225145Y-123793454D01*
X177208425Y-123774158D01*
X177078494Y-123588597D01*
X176911402Y-123421506D01*
X176911395Y-123421501D01*
X176717834Y-123285967D01*
X176717830Y-123285965D01*
X176717828Y-123285964D01*
X176503663Y-123186097D01*
X176503659Y-123186096D01*
X176503655Y-123186094D01*
X176275413Y-123124938D01*
X176275403Y-123124936D01*
X176040001Y-123104341D01*
X176039999Y-123104341D01*
X175804596Y-123124936D01*
X175804586Y-123124938D01*
X175576344Y-123186094D01*
X175576335Y-123186098D01*
X175362171Y-123285964D01*
X175362169Y-123285965D01*
X175168597Y-123421505D01*
X175001505Y-123588597D01*
X174871575Y-123774158D01*
X174816998Y-123817783D01*
X174747500Y-123824977D01*
X174685145Y-123793454D01*
X174668425Y-123774158D01*
X174538494Y-123588597D01*
X174371402Y-123421506D01*
X174371395Y-123421501D01*
X174177834Y-123285967D01*
X174177830Y-123285965D01*
X174177828Y-123285964D01*
X173963663Y-123186097D01*
X173963659Y-123186096D01*
X173963655Y-123186094D01*
X173735413Y-123124938D01*
X173735403Y-123124936D01*
X173500001Y-123104341D01*
X173499999Y-123104341D01*
X173264596Y-123124936D01*
X173264586Y-123124938D01*
X173036344Y-123186094D01*
X173036335Y-123186098D01*
X172822171Y-123285964D01*
X172822169Y-123285965D01*
X172628597Y-123421505D01*
X172461505Y-123588597D01*
X172325965Y-123782169D01*
X172325964Y-123782171D01*
X172226098Y-123996335D01*
X172226094Y-123996344D01*
X172164938Y-124224586D01*
X172164936Y-124224596D01*
X172144341Y-124459999D01*
X159610499Y-124459999D01*
X159610499Y-123562128D01*
X159604091Y-123502517D01*
X159602810Y-123499083D01*
X159553797Y-123367671D01*
X159553793Y-123367664D01*
X159467547Y-123252455D01*
X159467544Y-123252452D01*
X159352335Y-123166206D01*
X159352328Y-123166202D01*
X159217482Y-123115908D01*
X159217483Y-123115908D01*
X159157883Y-123109501D01*
X159157881Y-123109500D01*
X159157873Y-123109500D01*
X159157864Y-123109500D01*
X157362129Y-123109500D01*
X157362123Y-123109501D01*
X157302516Y-123115908D01*
X157167671Y-123166202D01*
X157167664Y-123166206D01*
X157052455Y-123252452D01*
X157052452Y-123252455D01*
X156966206Y-123367664D01*
X156966203Y-123367669D01*
X156917189Y-123499083D01*
X156875317Y-123555016D01*
X156809853Y-123579433D01*
X156741580Y-123564581D01*
X156713326Y-123543430D01*
X156591402Y-123421506D01*
X156591395Y-123421501D01*
X156397834Y-123285967D01*
X156397830Y-123285965D01*
X156397828Y-123285964D01*
X156183663Y-123186097D01*
X156183659Y-123186096D01*
X156183655Y-123186094D01*
X155955413Y-123124938D01*
X155955403Y-123124936D01*
X155720001Y-123104341D01*
X155719999Y-123104341D01*
X155484596Y-123124936D01*
X155484586Y-123124938D01*
X155256344Y-123186094D01*
X155256335Y-123186098D01*
X155042171Y-123285964D01*
X155042169Y-123285965D01*
X154848597Y-123421505D01*
X154681505Y-123588597D01*
X154551575Y-123774158D01*
X154496998Y-123817783D01*
X154427500Y-123824977D01*
X154365145Y-123793454D01*
X154348425Y-123774158D01*
X154218494Y-123588597D01*
X154051402Y-123421506D01*
X154051395Y-123421501D01*
X153857834Y-123285967D01*
X153857830Y-123285965D01*
X153857828Y-123285964D01*
X153643663Y-123186097D01*
X153643659Y-123186096D01*
X153643655Y-123186094D01*
X153415413Y-123124938D01*
X153415403Y-123124936D01*
X153180001Y-123104341D01*
X153179999Y-123104341D01*
X152944596Y-123124936D01*
X152944586Y-123124938D01*
X152716344Y-123186094D01*
X152716335Y-123186098D01*
X152502171Y-123285964D01*
X152502169Y-123285965D01*
X152308597Y-123421505D01*
X152141505Y-123588597D01*
X152011575Y-123774158D01*
X151956998Y-123817783D01*
X151887500Y-123824977D01*
X151825145Y-123793454D01*
X151808425Y-123774158D01*
X151678494Y-123588597D01*
X151511402Y-123421506D01*
X151511395Y-123421501D01*
X151317834Y-123285967D01*
X151317830Y-123285965D01*
X151317828Y-123285964D01*
X151103663Y-123186097D01*
X151103659Y-123186096D01*
X151103655Y-123186094D01*
X150875413Y-123124938D01*
X150875403Y-123124936D01*
X150640001Y-123104341D01*
X150639999Y-123104341D01*
X150404596Y-123124936D01*
X150404586Y-123124938D01*
X150176344Y-123186094D01*
X150176335Y-123186098D01*
X149962171Y-123285964D01*
X149962169Y-123285965D01*
X149768597Y-123421505D01*
X149601505Y-123588597D01*
X149465965Y-123782169D01*
X149465964Y-123782171D01*
X149366098Y-123996335D01*
X149366094Y-123996344D01*
X149304938Y-124224586D01*
X149304936Y-124224596D01*
X149284341Y-124459999D01*
X135291533Y-124459999D01*
X135486976Y-124196473D01*
X135541148Y-124106093D01*
X135693706Y-123851566D01*
X135865631Y-123488060D01*
X136001099Y-123109452D01*
X136098805Y-122719390D01*
X136157807Y-122321629D01*
X136177538Y-121920000D01*
X194022462Y-121920000D01*
X194042193Y-122321629D01*
X194042193Y-122321635D01*
X194042194Y-122321637D01*
X194101194Y-122719386D01*
X194198904Y-123109462D01*
X194334361Y-123488040D01*
X194334369Y-123488060D01*
X194506294Y-123851566D01*
X194506296Y-123851569D01*
X194713023Y-124196473D01*
X194952553Y-124519443D01*
X194952556Y-124519447D01*
X195222602Y-124817397D01*
X195520552Y-125087443D01*
X195520556Y-125087446D01*
X195843526Y-125326976D01*
X195926267Y-125376569D01*
X196188434Y-125533706D01*
X196551940Y-125705631D01*
X196551954Y-125705636D01*
X196551959Y-125705638D01*
X196686544Y-125753793D01*
X196930548Y-125841099D01*
X197320610Y-125938805D01*
X197718371Y-125997807D01*
X198120000Y-126017538D01*
X198521629Y-125997807D01*
X198919390Y-125938805D01*
X199309452Y-125841099D01*
X199688060Y-125705631D01*
X200051566Y-125533706D01*
X200396470Y-125326978D01*
X200666723Y-125126546D01*
X200719443Y-125087446D01*
X200719447Y-125087443D01*
X200719447Y-125087442D01*
X200719451Y-125087440D01*
X201017397Y-124817397D01*
X201287440Y-124519451D01*
X201331532Y-124460000D01*
X201526976Y-124196473D01*
X201581148Y-124106093D01*
X201733706Y-123851566D01*
X201905631Y-123488060D01*
X202041099Y-123109452D01*
X202138805Y-122719390D01*
X202197807Y-122321629D01*
X202217538Y-121920000D01*
X202197807Y-121518371D01*
X202138805Y-121120610D01*
X202041099Y-120730548D01*
X201947114Y-120467876D01*
X201905638Y-120351959D01*
X201905636Y-120351954D01*
X201905631Y-120351940D01*
X201733706Y-119988434D01*
X201565428Y-119707680D01*
X201526976Y-119643526D01*
X201287446Y-119320556D01*
X201287443Y-119320552D01*
X201017397Y-119022602D01*
X200719447Y-118752556D01*
X200719443Y-118752553D01*
X200396473Y-118513023D01*
X200099222Y-118334858D01*
X200051566Y-118306294D01*
X199688060Y-118134369D01*
X199688040Y-118134361D01*
X199309462Y-117998904D01*
X199309456Y-117998902D01*
X199309452Y-117998901D01*
X198919390Y-117901195D01*
X198919389Y-117901194D01*
X198919386Y-117901194D01*
X198521637Y-117842194D01*
X198521635Y-117842193D01*
X198521629Y-117842193D01*
X198120000Y-117822462D01*
X197718371Y-117842193D01*
X197718365Y-117842193D01*
X197718362Y-117842194D01*
X197320613Y-117901194D01*
X197124029Y-117950436D01*
X196930548Y-117998901D01*
X196930545Y-117998901D01*
X196930537Y-117998904D01*
X196551959Y-118134361D01*
X196551939Y-118134369D01*
X196313778Y-118247011D01*
X196237303Y-118283181D01*
X196188430Y-118306296D01*
X195843526Y-118513023D01*
X195520556Y-118752553D01*
X195520552Y-118752556D01*
X195222602Y-119022602D01*
X194952556Y-119320552D01*
X194952553Y-119320556D01*
X194713023Y-119643526D01*
X194506296Y-119988430D01*
X194334369Y-120351939D01*
X194334361Y-120351959D01*
X194198904Y-120730537D01*
X194198901Y-120730545D01*
X194198901Y-120730548D01*
X194152926Y-120914091D01*
X194101194Y-121120613D01*
X194071544Y-121320499D01*
X194042193Y-121518371D01*
X194022462Y-121920000D01*
X136177538Y-121920000D01*
X136157807Y-121518371D01*
X136098805Y-121120610D01*
X136001099Y-120730548D01*
X135907114Y-120467876D01*
X135865638Y-120351959D01*
X135865636Y-120351954D01*
X135865631Y-120351940D01*
X135693706Y-119988434D01*
X135525428Y-119707680D01*
X135486976Y-119643526D01*
X135247446Y-119320556D01*
X135247443Y-119320552D01*
X134977397Y-119022602D01*
X134679447Y-118752556D01*
X134679443Y-118752553D01*
X134356473Y-118513023D01*
X134059222Y-118334858D01*
X134011566Y-118306294D01*
X133648060Y-118134369D01*
X133648040Y-118134361D01*
X133269462Y-117998904D01*
X133269456Y-117998902D01*
X133269452Y-117998901D01*
X132879390Y-117901195D01*
X132879389Y-117901194D01*
X132879386Y-117901194D01*
X132481637Y-117842194D01*
X132481635Y-117842193D01*
X132481629Y-117842193D01*
X132080000Y-117822462D01*
X131678371Y-117842193D01*
X131678365Y-117842193D01*
X131678362Y-117842194D01*
X131280613Y-117901194D01*
X131084029Y-117950436D01*
X130890548Y-117998901D01*
X130890545Y-117998901D01*
X130890537Y-117998904D01*
X130511959Y-118134361D01*
X130511939Y-118134369D01*
X130273778Y-118247011D01*
X130197303Y-118283181D01*
X130148430Y-118306296D01*
X129803526Y-118513023D01*
X129480556Y-118752553D01*
X129480552Y-118752556D01*
X129182602Y-119022602D01*
X128912556Y-119320552D01*
X128912553Y-119320556D01*
X128673023Y-119643526D01*
X128466296Y-119988430D01*
X128294369Y-120351939D01*
X128294361Y-120351959D01*
X128158904Y-120730537D01*
X128158901Y-120730545D01*
X128158901Y-120730548D01*
X128112926Y-120914091D01*
X128061194Y-121120613D01*
X128031544Y-121320499D01*
X128002193Y-121518371D01*
X127982462Y-121920000D01*
X127500500Y-121920000D01*
X127500500Y-114539999D01*
X136734859Y-114539999D01*
X136734859Y-114540000D01*
X136755378Y-114761439D01*
X136816240Y-114975350D01*
X136915369Y-115174428D01*
X136931137Y-115195308D01*
X136931138Y-115195308D01*
X137586447Y-114540000D01*
X136931138Y-113884691D01*
X136931137Y-113884691D01*
X136915368Y-113905574D01*
X136816240Y-114104649D01*
X136755378Y-114318560D01*
X136734859Y-114539999D01*
X127500500Y-114539999D01*
X127500500Y-95489999D01*
X136734357Y-95489999D01*
X136734357Y-95490000D01*
X136754884Y-95711535D01*
X136754885Y-95711537D01*
X136815769Y-95925523D01*
X136815775Y-95925538D01*
X136914938Y-96124683D01*
X136914943Y-96124691D01*
X137049020Y-96302238D01*
X137213437Y-96452123D01*
X137213439Y-96452125D01*
X137402595Y-96569245D01*
X137402596Y-96569245D01*
X137402599Y-96569247D01*
X137610060Y-96649618D01*
X137828757Y-96690500D01*
X137828759Y-96690500D01*
X138051241Y-96690500D01*
X138051243Y-96690500D01*
X138269940Y-96649618D01*
X138477401Y-96569247D01*
X138666562Y-96452124D01*
X138830981Y-96302236D01*
X138965058Y-96124689D01*
X139064229Y-95925528D01*
X139125115Y-95711536D01*
X139145643Y-95490000D01*
X139128917Y-95309500D01*
X139125115Y-95268464D01*
X139125114Y-95268462D01*
X139117381Y-95241284D01*
X139064229Y-95054472D01*
X139062213Y-95050423D01*
X138965061Y-94855316D01*
X138965056Y-94855308D01*
X138830979Y-94677761D01*
X138666562Y-94527876D01*
X138666560Y-94527874D01*
X138477404Y-94410754D01*
X138477398Y-94410752D01*
X138269940Y-94330382D01*
X138051243Y-94289500D01*
X137828757Y-94289500D01*
X137610060Y-94330382D01*
X137478864Y-94381207D01*
X137402601Y-94410752D01*
X137402595Y-94410754D01*
X137213439Y-94527874D01*
X137213437Y-94527876D01*
X137049020Y-94677761D01*
X136914943Y-94855308D01*
X136914938Y-94855316D01*
X136815775Y-95054461D01*
X136815769Y-95054476D01*
X136754885Y-95268462D01*
X136754884Y-95268464D01*
X136734357Y-95489999D01*
X127500500Y-95489999D01*
X127500500Y-91440000D01*
X152400000Y-91440000D01*
X152400000Y-89921240D01*
X152419685Y-89854201D01*
X152472489Y-89808446D01*
X152541647Y-89798502D01*
X152576399Y-89808856D01*
X152666550Y-89850894D01*
X152879932Y-89908070D01*
X153037123Y-89921822D01*
X153099998Y-89927323D01*
X153100000Y-89927323D01*
X153100002Y-89927323D01*
X153155151Y-89922498D01*
X153320068Y-89908070D01*
X153533450Y-89850894D01*
X153733662Y-89757534D01*
X153914620Y-89630826D01*
X154070826Y-89474620D01*
X154197534Y-89293662D01*
X154237618Y-89207700D01*
X154283790Y-89155261D01*
X154350983Y-89136109D01*
X154417864Y-89156324D01*
X154462382Y-89207701D01*
X154502464Y-89293658D01*
X154502468Y-89293666D01*
X154629170Y-89474615D01*
X154629175Y-89474621D01*
X154785378Y-89630824D01*
X154785384Y-89630829D01*
X154966333Y-89757531D01*
X154966335Y-89757532D01*
X154966338Y-89757534D01*
X155166550Y-89850894D01*
X155379932Y-89908070D01*
X155537123Y-89921822D01*
X155599998Y-89927323D01*
X155600000Y-89927323D01*
X155600002Y-89927323D01*
X155655151Y-89922498D01*
X155820068Y-89908070D01*
X156033450Y-89850894D01*
X156233662Y-89757534D01*
X156414620Y-89630826D01*
X156570826Y-89474620D01*
X156697534Y-89293662D01*
X156737618Y-89207700D01*
X156783790Y-89155261D01*
X156850983Y-89136109D01*
X156917864Y-89156324D01*
X156962382Y-89207701D01*
X157002464Y-89293658D01*
X157002468Y-89293666D01*
X157129170Y-89474615D01*
X157129175Y-89474621D01*
X157285378Y-89630824D01*
X157285384Y-89630829D01*
X157466333Y-89757531D01*
X157466335Y-89757532D01*
X157466338Y-89757534D01*
X157666550Y-89850894D01*
X157879932Y-89908070D01*
X158037123Y-89921822D01*
X158099998Y-89927323D01*
X158100000Y-89927323D01*
X158100002Y-89927323D01*
X158155151Y-89922498D01*
X158320068Y-89908070D01*
X158533450Y-89850894D01*
X158733662Y-89757534D01*
X158914620Y-89630826D01*
X159070826Y-89474620D01*
X159197534Y-89293662D01*
X159237618Y-89207700D01*
X159283790Y-89155261D01*
X159350983Y-89136109D01*
X159417864Y-89156324D01*
X159462382Y-89207701D01*
X159502464Y-89293658D01*
X159502468Y-89293666D01*
X159629170Y-89474615D01*
X159629175Y-89474621D01*
X159785378Y-89630824D01*
X159785384Y-89630829D01*
X159966333Y-89757531D01*
X159966335Y-89757532D01*
X159966338Y-89757534D01*
X160166550Y-89850894D01*
X160379932Y-89908070D01*
X160537123Y-89921822D01*
X160599998Y-89927323D01*
X160600000Y-89927323D01*
X160600002Y-89927323D01*
X160655151Y-89922498D01*
X160820068Y-89908070D01*
X161033450Y-89850894D01*
X161233662Y-89757534D01*
X161414620Y-89630826D01*
X161570826Y-89474620D01*
X161697534Y-89293662D01*
X161737618Y-89207700D01*
X161783790Y-89155261D01*
X161850983Y-89136109D01*
X161917864Y-89156324D01*
X161962382Y-89207701D01*
X162002464Y-89293658D01*
X162002468Y-89293666D01*
X162129170Y-89474615D01*
X162129175Y-89474621D01*
X162285378Y-89630824D01*
X162285384Y-89630829D01*
X162466333Y-89757531D01*
X162466335Y-89757532D01*
X162466338Y-89757534D01*
X162666550Y-89850894D01*
X162879932Y-89908070D01*
X163037123Y-89921822D01*
X163099998Y-89927323D01*
X163100000Y-89927323D01*
X163100002Y-89927323D01*
X163155151Y-89922498D01*
X163320068Y-89908070D01*
X163533450Y-89850894D01*
X163733662Y-89757534D01*
X163914620Y-89630826D01*
X164070826Y-89474620D01*
X164197534Y-89293662D01*
X164237618Y-89207700D01*
X164283790Y-89155261D01*
X164350983Y-89136109D01*
X164417864Y-89156324D01*
X164462382Y-89207701D01*
X164502464Y-89293658D01*
X164502468Y-89293666D01*
X164629170Y-89474615D01*
X164629175Y-89474621D01*
X164785378Y-89630824D01*
X164785384Y-89630829D01*
X164966333Y-89757531D01*
X164966335Y-89757532D01*
X164966338Y-89757534D01*
X165166550Y-89850894D01*
X165379932Y-89908070D01*
X165537123Y-89921822D01*
X165599998Y-89927323D01*
X165600000Y-89927323D01*
X165600002Y-89927323D01*
X165655151Y-89922498D01*
X165820068Y-89908070D01*
X166033450Y-89850894D01*
X166233662Y-89757534D01*
X166414620Y-89630826D01*
X166570826Y-89474620D01*
X166697534Y-89293662D01*
X166737618Y-89207700D01*
X166783790Y-89155261D01*
X166850983Y-89136109D01*
X166917864Y-89156324D01*
X166962382Y-89207701D01*
X167002464Y-89293658D01*
X167002468Y-89293666D01*
X167129170Y-89474615D01*
X167129175Y-89474621D01*
X167285378Y-89630824D01*
X167285384Y-89630829D01*
X167466333Y-89757531D01*
X167466335Y-89757532D01*
X167466338Y-89757534D01*
X167666550Y-89850894D01*
X167879932Y-89908070D01*
X168037123Y-89921822D01*
X168099998Y-89927323D01*
X168100000Y-89927323D01*
X168100002Y-89927323D01*
X168155151Y-89922498D01*
X168320068Y-89908070D01*
X168533450Y-89850894D01*
X168733662Y-89757534D01*
X168914620Y-89630826D01*
X169070826Y-89474620D01*
X169197534Y-89293662D01*
X169237618Y-89207700D01*
X169283790Y-89155261D01*
X169350983Y-89136109D01*
X169417864Y-89156324D01*
X169462382Y-89207701D01*
X169502464Y-89293658D01*
X169502468Y-89293666D01*
X169629170Y-89474615D01*
X169629175Y-89474621D01*
X169785378Y-89630824D01*
X169785384Y-89630829D01*
X169966333Y-89757531D01*
X169966335Y-89757532D01*
X169966338Y-89757534D01*
X170166550Y-89850894D01*
X170379932Y-89908070D01*
X170537123Y-89921822D01*
X170599998Y-89927323D01*
X170600000Y-89927323D01*
X170600002Y-89927323D01*
X170655151Y-89922498D01*
X170820068Y-89908070D01*
X171033450Y-89850894D01*
X171233662Y-89757534D01*
X171414620Y-89630826D01*
X171570826Y-89474620D01*
X171697534Y-89293662D01*
X171737618Y-89207700D01*
X171783790Y-89155261D01*
X171850983Y-89136109D01*
X171917864Y-89156324D01*
X171962382Y-89207701D01*
X172002464Y-89293658D01*
X172002468Y-89293666D01*
X172129170Y-89474615D01*
X172129175Y-89474621D01*
X172285378Y-89630824D01*
X172285384Y-89630829D01*
X172466333Y-89757531D01*
X172466335Y-89757532D01*
X172466338Y-89757534D01*
X172666550Y-89850894D01*
X172879932Y-89908070D01*
X173037123Y-89921822D01*
X173099998Y-89927323D01*
X173100000Y-89927323D01*
X173100002Y-89927323D01*
X173155151Y-89922498D01*
X173320068Y-89908070D01*
X173533450Y-89850894D01*
X173733662Y-89757534D01*
X173914620Y-89630826D01*
X174070826Y-89474620D01*
X174197534Y-89293662D01*
X174237618Y-89207700D01*
X174283790Y-89155261D01*
X174350983Y-89136109D01*
X174417864Y-89156324D01*
X174462382Y-89207701D01*
X174502464Y-89293658D01*
X174502468Y-89293666D01*
X174629170Y-89474615D01*
X174629175Y-89474621D01*
X174785378Y-89630824D01*
X174785384Y-89630829D01*
X174966333Y-89757531D01*
X174966335Y-89757532D01*
X174966338Y-89757534D01*
X175166550Y-89850894D01*
X175379932Y-89908070D01*
X175537123Y-89921822D01*
X175599998Y-89927323D01*
X175600000Y-89927323D01*
X175600002Y-89927323D01*
X175655151Y-89922498D01*
X175820068Y-89908070D01*
X176033450Y-89850894D01*
X176233662Y-89757534D01*
X176414620Y-89630826D01*
X176570826Y-89474620D01*
X176697534Y-89293662D01*
X176697539Y-89293650D01*
X176698230Y-89292455D01*
X176698677Y-89292028D01*
X176700639Y-89289227D01*
X176701201Y-89289621D01*
X176748797Y-89244239D01*
X176773521Y-89234680D01*
X176829890Y-89219577D01*
X176829901Y-89219570D01*
X176835898Y-89217087D01*
X176905367Y-89209614D01*
X176967848Y-89240884D01*
X176995739Y-89279236D01*
X177002466Y-89293662D01*
X177002467Y-89293664D01*
X177002468Y-89293665D01*
X177002468Y-89293666D01*
X177125849Y-89469872D01*
X177129174Y-89474620D01*
X177285380Y-89630826D01*
X177446623Y-89743729D01*
X177490248Y-89798306D01*
X177499500Y-89845304D01*
X177499500Y-93379903D01*
X177479815Y-93446942D01*
X177463181Y-93467584D01*
X175657584Y-95273181D01*
X175596261Y-95306666D01*
X175569903Y-95309500D01*
X144487943Y-95309500D01*
X144420904Y-95289815D01*
X144375149Y-95237011D01*
X144364654Y-95172244D01*
X144370499Y-95117880D01*
X144370500Y-95117873D01*
X144370499Y-93322128D01*
X144364091Y-93262517D01*
X144336945Y-93189736D01*
X144313797Y-93127671D01*
X144313793Y-93127664D01*
X144227547Y-93012455D01*
X144227544Y-93012452D01*
X144112335Y-92926206D01*
X144112328Y-92926202D01*
X143977482Y-92875908D01*
X143977483Y-92875908D01*
X143917883Y-92869501D01*
X143917881Y-92869500D01*
X143917873Y-92869500D01*
X143917864Y-92869500D01*
X142122129Y-92869500D01*
X142122123Y-92869501D01*
X142062516Y-92875908D01*
X141927671Y-92926202D01*
X141927664Y-92926206D01*
X141812455Y-93012452D01*
X141812452Y-93012455D01*
X141726206Y-93127664D01*
X141726202Y-93127671D01*
X141675908Y-93262517D01*
X141673758Y-93282520D01*
X141669501Y-93322123D01*
X141669500Y-93322135D01*
X141669500Y-95117870D01*
X141669501Y-95117876D01*
X141675908Y-95177483D01*
X141726202Y-95312328D01*
X141726206Y-95312335D01*
X141812452Y-95427544D01*
X141812455Y-95427547D01*
X141927664Y-95513793D01*
X141927671Y-95513797D01*
X142059081Y-95562810D01*
X142115015Y-95604681D01*
X142139432Y-95670145D01*
X142124580Y-95738418D01*
X142103430Y-95766673D01*
X141981503Y-95888600D01*
X141845965Y-96082169D01*
X141845964Y-96082171D01*
X141746098Y-96296335D01*
X141746094Y-96296344D01*
X141684938Y-96524586D01*
X141684936Y-96524596D01*
X141664341Y-96759999D01*
X141664341Y-96760000D01*
X141684936Y-96995403D01*
X141684938Y-96995413D01*
X141746094Y-97223655D01*
X141746096Y-97223659D01*
X141746097Y-97223663D01*
X141788876Y-97315402D01*
X141845965Y-97437830D01*
X141845967Y-97437834D01*
X141981501Y-97631395D01*
X141981506Y-97631402D01*
X142148597Y-97798493D01*
X142148603Y-97798498D01*
X142334158Y-97928425D01*
X142377783Y-97983002D01*
X142384977Y-98052500D01*
X142353454Y-98114855D01*
X142334158Y-98131575D01*
X142148597Y-98261505D01*
X141981505Y-98428597D01*
X141845965Y-98622169D01*
X141845964Y-98622171D01*
X141746098Y-98836335D01*
X141746094Y-98836344D01*
X141684938Y-99064586D01*
X141684936Y-99064596D01*
X141664341Y-99299999D01*
X141664341Y-99300000D01*
X141684936Y-99535403D01*
X141684938Y-99535413D01*
X141746094Y-99763655D01*
X141746096Y-99763659D01*
X141746097Y-99763663D01*
X141811227Y-99903334D01*
X141845965Y-99977830D01*
X141845967Y-99977834D01*
X141981501Y-100171395D01*
X141981506Y-100171402D01*
X142148597Y-100338493D01*
X142148603Y-100338498D01*
X142334158Y-100468425D01*
X142377783Y-100523002D01*
X142384977Y-100592500D01*
X142353454Y-100654855D01*
X142334158Y-100671575D01*
X142148597Y-100801505D01*
X141981505Y-100968597D01*
X141845965Y-101162169D01*
X141845964Y-101162171D01*
X141746098Y-101376335D01*
X141746094Y-101376344D01*
X141684938Y-101604586D01*
X141684936Y-101604596D01*
X141664341Y-101839999D01*
X141664341Y-101840000D01*
X141684936Y-102075403D01*
X141684938Y-102075413D01*
X141746094Y-102303655D01*
X141746096Y-102303659D01*
X141746097Y-102303663D01*
X141826137Y-102475308D01*
X141845965Y-102517830D01*
X141845967Y-102517834D01*
X141954281Y-102672521D01*
X141981505Y-102711401D01*
X142148599Y-102878495D01*
X142245384Y-102946265D01*
X142342165Y-103014032D01*
X142342167Y-103014033D01*
X142342170Y-103014035D01*
X142556337Y-103113903D01*
X142784592Y-103175063D01*
X142972918Y-103191539D01*
X143019999Y-103195659D01*
X143020000Y-103195659D01*
X143020001Y-103195659D01*
X143059234Y-103192226D01*
X143255408Y-103175063D01*
X143483663Y-103113903D01*
X143697830Y-103014035D01*
X143891401Y-102878495D01*
X144058495Y-102711401D01*
X144194035Y-102517830D01*
X144293903Y-102303663D01*
X144355063Y-102075408D01*
X144375659Y-101840000D01*
X144355063Y-101604592D01*
X144293903Y-101376337D01*
X144194035Y-101162171D01*
X144180015Y-101142147D01*
X144058494Y-100968597D01*
X143891402Y-100801506D01*
X143891396Y-100801501D01*
X143705842Y-100671575D01*
X143662217Y-100616998D01*
X143655023Y-100547500D01*
X143686546Y-100485145D01*
X143705842Y-100468425D01*
X143759909Y-100430567D01*
X143891401Y-100338495D01*
X144058495Y-100171401D01*
X144194035Y-99977830D01*
X144293903Y-99763663D01*
X144355063Y-99535408D01*
X144375659Y-99300000D01*
X144355063Y-99064592D01*
X144293903Y-98836337D01*
X144194035Y-98622171D01*
X144152828Y-98563320D01*
X144058494Y-98428597D01*
X143891402Y-98261506D01*
X143891396Y-98261501D01*
X143705842Y-98131575D01*
X143662217Y-98076998D01*
X143655023Y-98007500D01*
X143686546Y-97945145D01*
X143705842Y-97928425D01*
X143728026Y-97912891D01*
X143891401Y-97798495D01*
X144058495Y-97631401D01*
X144194035Y-97437830D01*
X144293903Y-97223663D01*
X144355063Y-96995408D01*
X144375659Y-96760000D01*
X144365624Y-96645306D01*
X144379390Y-96576808D01*
X144428005Y-96526625D01*
X144489152Y-96510500D01*
X162228771Y-96510500D01*
X162295810Y-96530185D01*
X162341565Y-96582989D01*
X162351509Y-96652147D01*
X162322484Y-96715703D01*
X162316452Y-96722181D01*
X161065348Y-97973282D01*
X161004025Y-98006767D01*
X160966861Y-98009129D01*
X160800003Y-97994532D01*
X160799998Y-97994532D01*
X160573313Y-98014364D01*
X160573302Y-98014366D01*
X160353511Y-98073258D01*
X160353502Y-98073261D01*
X160147267Y-98169431D01*
X160147265Y-98169432D01*
X159960858Y-98299954D01*
X159799954Y-98460858D01*
X159774912Y-98496623D01*
X159720335Y-98540248D01*
X159673337Y-98549500D01*
X158622230Y-98549500D01*
X158555191Y-98529815D01*
X158534549Y-98513181D01*
X157488421Y-97467052D01*
X157488420Y-97467051D01*
X157444687Y-97437830D01*
X157384750Y-97397782D01*
X157384749Y-97397780D01*
X157369375Y-97387509D01*
X157365495Y-97384916D01*
X157365493Y-97384915D01*
X157365490Y-97384913D01*
X157228917Y-97328343D01*
X157228907Y-97328340D01*
X157083920Y-97299500D01*
X157083918Y-97299500D01*
X147508315Y-97299500D01*
X147508313Y-97299500D01*
X147363325Y-97328340D01*
X147363315Y-97328343D01*
X147226742Y-97384913D01*
X147226739Y-97384915D01*
X147207479Y-97397784D01*
X147207478Y-97397783D01*
X147103818Y-97467046D01*
X147103811Y-97467052D01*
X146267050Y-98303813D01*
X146267044Y-98303821D01*
X146217812Y-98377501D01*
X146217813Y-98377502D01*
X146184921Y-98426729D01*
X146184914Y-98426741D01*
X146128342Y-98563319D01*
X146128340Y-98563325D01*
X146099500Y-98708312D01*
X146099500Y-112887769D01*
X146079815Y-112954808D01*
X146063181Y-112975450D01*
X140755450Y-118283181D01*
X140694127Y-118316666D01*
X140667769Y-118319500D01*
X140104500Y-118319500D01*
X140037461Y-118299815D01*
X139991706Y-118247011D01*
X139980500Y-118195500D01*
X139980500Y-109695159D01*
X139980500Y-109695157D01*
X139939577Y-109542430D01*
X139939577Y-109542429D01*
X139919462Y-109507590D01*
X139891986Y-109459999D01*
X139891985Y-109459998D01*
X139860521Y-109405500D01*
X139860520Y-109405498D01*
X139748716Y-109293694D01*
X139748715Y-109293693D01*
X139744385Y-109289363D01*
X139744374Y-109289353D01*
X138573810Y-108118789D01*
X138540325Y-108057466D01*
X138545309Y-107987774D01*
X138587181Y-107931841D01*
X138596201Y-107925688D01*
X138666562Y-107882124D01*
X138830981Y-107732236D01*
X138965058Y-107554689D01*
X139064229Y-107355528D01*
X139125115Y-107141536D01*
X139145643Y-106920000D01*
X139125115Y-106698464D01*
X139064229Y-106484472D01*
X139064224Y-106484461D01*
X138965061Y-106285316D01*
X138965056Y-106285308D01*
X138830979Y-106107761D01*
X138666562Y-105957876D01*
X138666560Y-105957874D01*
X138477404Y-105840754D01*
X138477398Y-105840752D01*
X138269940Y-105760382D01*
X138051243Y-105719500D01*
X137828757Y-105719500D01*
X137687285Y-105745946D01*
X137617770Y-105738915D01*
X137563091Y-105695417D01*
X137540609Y-105629263D01*
X137540500Y-105624057D01*
X137540500Y-104410097D01*
X137560185Y-104343058D01*
X137576801Y-104322433D01*
X137580309Y-104318925D01*
X137641624Y-104285435D01*
X137690784Y-104284708D01*
X137828757Y-104310500D01*
X137828759Y-104310500D01*
X138051241Y-104310500D01*
X138051243Y-104310500D01*
X138269940Y-104269618D01*
X138477401Y-104189247D01*
X138666562Y-104072124D01*
X138830981Y-103922236D01*
X138965058Y-103744689D01*
X138966754Y-103741284D01*
X139064224Y-103545538D01*
X139064223Y-103545538D01*
X139064229Y-103545528D01*
X139125115Y-103331536D01*
X139145643Y-103110000D01*
X139142356Y-103074532D01*
X139125115Y-102888464D01*
X139125114Y-102888462D01*
X139122278Y-102878495D01*
X139064229Y-102674472D01*
X139064224Y-102674461D01*
X138965061Y-102475316D01*
X138965056Y-102475308D01*
X138830979Y-102297761D01*
X138666562Y-102147876D01*
X138666560Y-102147874D01*
X138477404Y-102030754D01*
X138477398Y-102030752D01*
X138269940Y-101950382D01*
X138051243Y-101909500D01*
X137828757Y-101909500D01*
X137610060Y-101950382D01*
X137496452Y-101994394D01*
X137402601Y-102030752D01*
X137402595Y-102030754D01*
X137213439Y-102147874D01*
X137213437Y-102147876D01*
X137049020Y-102297761D01*
X136914943Y-102475308D01*
X136914938Y-102475316D01*
X136815775Y-102674461D01*
X136815769Y-102674476D01*
X136754885Y-102888462D01*
X136754884Y-102888464D01*
X136734357Y-103109999D01*
X136734357Y-103110000D01*
X136754885Y-103331537D01*
X136760270Y-103350463D01*
X136759683Y-103420330D01*
X136728686Y-103472078D01*
X136571286Y-103629478D01*
X136571284Y-103629480D01*
X136515382Y-103685381D01*
X136459481Y-103741282D01*
X136459480Y-103741284D01*
X136442540Y-103770626D01*
X136380423Y-103878215D01*
X136339499Y-104030943D01*
X136339499Y-104030945D01*
X136339499Y-104199046D01*
X136339500Y-104199059D01*
X136339500Y-107247544D01*
X136339499Y-107247562D01*
X136339499Y-107413268D01*
X136339498Y-107413268D01*
X136380423Y-107566001D01*
X136380424Y-107566002D01*
X136388866Y-107580623D01*
X136388868Y-107580626D01*
X136459477Y-107702926D01*
X136459481Y-107702931D01*
X136578349Y-107821799D01*
X136578355Y-107821804D01*
X138743181Y-109986630D01*
X138776666Y-110047953D01*
X138779500Y-110074311D01*
X138779500Y-113425769D01*
X138759815Y-113492808D01*
X138707011Y-113538563D01*
X138637853Y-113548507D01*
X138590222Y-113531196D01*
X138477179Y-113461202D01*
X138477177Y-113461201D01*
X138269804Y-113380865D01*
X138051193Y-113340000D01*
X137828807Y-113340000D01*
X137610195Y-113380865D01*
X137402824Y-113461200D01*
X137402823Y-113461201D01*
X137286671Y-113533119D01*
X137940000Y-114186447D01*
X137943553Y-114190000D01*
X137893922Y-114190000D01*
X137804905Y-114213852D01*
X137725095Y-114259930D01*
X137659930Y-114325095D01*
X137613852Y-114404905D01*
X137590000Y-114493922D01*
X137590000Y-114586078D01*
X137613852Y-114675095D01*
X137659930Y-114754905D01*
X137725095Y-114820070D01*
X137804905Y-114866148D01*
X137893922Y-114890000D01*
X137943551Y-114890000D01*
X137286672Y-115546879D01*
X137286672Y-115546880D01*
X137402821Y-115618797D01*
X137402822Y-115618798D01*
X137610195Y-115699134D01*
X137828807Y-115740000D01*
X138051193Y-115740000D01*
X138269804Y-115699134D01*
X138477177Y-115618798D01*
X138477187Y-115618793D01*
X138590222Y-115548804D01*
X138657582Y-115530247D01*
X138724282Y-115551055D01*
X138769143Y-115604620D01*
X138779500Y-115654230D01*
X138779500Y-118363780D01*
X138759815Y-118430819D01*
X138707011Y-118476574D01*
X138637853Y-118486518D01*
X138603096Y-118476162D01*
X138426331Y-118393735D01*
X138426317Y-118393730D01*
X138206610Y-118334860D01*
X138206599Y-118334858D01*
X137980002Y-118315034D01*
X137979998Y-118315034D01*
X137753400Y-118334858D01*
X137753389Y-118334860D01*
X137533682Y-118393730D01*
X137533673Y-118393734D01*
X137327516Y-118489866D01*
X137327512Y-118489868D01*
X137254526Y-118540973D01*
X137254526Y-118540974D01*
X137933553Y-119220000D01*
X137927339Y-119220000D01*
X137825606Y-119247259D01*
X137734394Y-119299920D01*
X137659920Y-119374394D01*
X137607259Y-119465606D01*
X137580000Y-119567339D01*
X137580000Y-119573552D01*
X136900974Y-118894526D01*
X136900973Y-118894526D01*
X136849868Y-118967512D01*
X136849866Y-118967516D01*
X136753734Y-119173673D01*
X136753730Y-119173682D01*
X136694860Y-119393389D01*
X136694858Y-119393400D01*
X136675034Y-119619997D01*
X136675034Y-119620002D01*
X136694858Y-119846599D01*
X136694860Y-119846610D01*
X136753730Y-120066317D01*
X136753735Y-120066331D01*
X136849863Y-120272478D01*
X136900974Y-120345472D01*
X137580000Y-119666446D01*
X137580000Y-119672661D01*
X137607259Y-119774394D01*
X137659920Y-119865606D01*
X137734394Y-119940080D01*
X137825606Y-119992741D01*
X137927339Y-120020000D01*
X137933551Y-120020000D01*
X137254526Y-120699025D01*
X137327513Y-120750132D01*
X137327521Y-120750136D01*
X137533668Y-120846264D01*
X137533682Y-120846269D01*
X137753389Y-120905139D01*
X137753400Y-120905141D01*
X137979998Y-120924966D01*
X137980002Y-120924966D01*
X138206599Y-120905141D01*
X138206610Y-120905139D01*
X138426317Y-120846269D01*
X138426326Y-120846265D01*
X138617586Y-120757080D01*
X138686664Y-120746588D01*
X138750448Y-120775108D01*
X138788687Y-120833584D01*
X138789760Y-120837348D01*
X138813237Y-120924966D01*
X138820423Y-120951783D01*
X138820426Y-120951790D01*
X138899475Y-121088709D01*
X138899478Y-121088713D01*
X138899480Y-121088716D01*
X139011284Y-121200520D01*
X139011286Y-121200521D01*
X139011290Y-121200524D01*
X139148209Y-121279573D01*
X139148216Y-121279577D01*
X139300943Y-121320500D01*
X141473331Y-121320500D01*
X141473347Y-121320501D01*
X141480943Y-121320501D01*
X141639054Y-121320501D01*
X141639057Y-121320501D01*
X141791785Y-121279577D01*
X141841904Y-121250639D01*
X141928716Y-121200520D01*
X142040520Y-121088716D01*
X142040520Y-121088714D01*
X142050728Y-121078507D01*
X142050730Y-121078504D01*
X142598506Y-120530728D01*
X142598511Y-120530724D01*
X142608714Y-120520520D01*
X142608716Y-120520520D01*
X142720520Y-120408716D01*
X142772049Y-120319464D01*
X142799577Y-120271785D01*
X142840500Y-120119058D01*
X142840500Y-119960943D01*
X142840500Y-119144461D01*
X142860185Y-119077422D01*
X142876814Y-119056785D01*
X146771524Y-115162074D01*
X146832845Y-115128591D01*
X146902537Y-115133575D01*
X146958470Y-115175447D01*
X146966207Y-115188341D01*
X146966724Y-115188043D01*
X146969432Y-115192734D01*
X147099954Y-115379141D01*
X147260858Y-115540045D01*
X147260861Y-115540047D01*
X147447266Y-115670568D01*
X147505275Y-115697618D01*
X147557714Y-115743791D01*
X147576866Y-115810984D01*
X147556650Y-115877865D01*
X147505275Y-115922381D01*
X147488272Y-115930310D01*
X147447267Y-115949431D01*
X147447265Y-115949432D01*
X147260858Y-116079954D01*
X147099954Y-116240858D01*
X146969432Y-116427265D01*
X146969431Y-116427267D01*
X146873261Y-116633502D01*
X146873258Y-116633511D01*
X146814366Y-116853302D01*
X146814364Y-116853313D01*
X146794532Y-117079998D01*
X146794532Y-117080001D01*
X146814364Y-117306686D01*
X146814366Y-117306697D01*
X146873258Y-117526488D01*
X146873261Y-117526497D01*
X146969431Y-117732732D01*
X146969432Y-117732734D01*
X147099954Y-117919141D01*
X147260858Y-118080045D01*
X147260861Y-118080047D01*
X147447266Y-118210568D01*
X147653504Y-118306739D01*
X147653509Y-118306740D01*
X147653511Y-118306741D01*
X147690552Y-118316666D01*
X147873308Y-118365635D01*
X148035230Y-118379801D01*
X148099998Y-118385468D01*
X148100000Y-118385468D01*
X148100002Y-118385468D01*
X148162511Y-118379999D01*
X148326692Y-118365635D01*
X148546496Y-118306739D01*
X148752734Y-118210568D01*
X148939139Y-118080047D01*
X149100047Y-117919139D01*
X149230568Y-117732734D01*
X149326739Y-117526496D01*
X149385635Y-117306692D01*
X149405468Y-117080000D01*
X149385635Y-116853308D01*
X149326739Y-116633504D01*
X149230568Y-116427266D01*
X149100047Y-116240861D01*
X149100045Y-116240858D01*
X148939141Y-116079954D01*
X148752734Y-115949432D01*
X148752728Y-115949429D01*
X148725038Y-115936517D01*
X148694724Y-115922381D01*
X148642285Y-115876210D01*
X148623133Y-115809017D01*
X148643348Y-115742135D01*
X148694725Y-115697618D01*
X148752734Y-115670568D01*
X148939139Y-115540047D01*
X149100047Y-115379139D01*
X149230568Y-115192734D01*
X149326739Y-114986496D01*
X149385635Y-114766692D01*
X149405468Y-114540000D01*
X149385635Y-114313308D01*
X149370438Y-114256591D01*
X149372101Y-114186744D01*
X149411263Y-114128881D01*
X149475492Y-114101377D01*
X149490213Y-114100500D01*
X159409787Y-114100500D01*
X159476826Y-114120185D01*
X159522581Y-114172989D01*
X159532525Y-114242147D01*
X159529564Y-114256582D01*
X159520681Y-114289733D01*
X159514365Y-114313306D01*
X159514364Y-114313313D01*
X159494532Y-114539998D01*
X159494532Y-114540001D01*
X159514364Y-114766686D01*
X159514366Y-114766697D01*
X159573258Y-114986488D01*
X159573261Y-114986497D01*
X159669431Y-115192732D01*
X159669432Y-115192734D01*
X159799954Y-115379141D01*
X159960858Y-115540045D01*
X159986086Y-115557710D01*
X160029711Y-115612287D01*
X160036905Y-115681785D01*
X160005382Y-115744140D01*
X159945153Y-115779554D01*
X159928221Y-115782574D01*
X159892626Y-115786401D01*
X159892620Y-115786403D01*
X159757913Y-115836645D01*
X159757906Y-115836649D01*
X159642812Y-115922809D01*
X159642809Y-115922812D01*
X159556649Y-116037906D01*
X159556645Y-116037913D01*
X159506403Y-116172620D01*
X159506401Y-116172627D01*
X159500000Y-116232155D01*
X159500000Y-116830000D01*
X160484314Y-116830000D01*
X160479920Y-116834394D01*
X160427259Y-116925606D01*
X160400000Y-117027339D01*
X160400000Y-117132661D01*
X160427259Y-117234394D01*
X160479920Y-117325606D01*
X160484314Y-117330000D01*
X159500000Y-117330000D01*
X159500000Y-117927844D01*
X159506401Y-117987372D01*
X159506403Y-117987379D01*
X159556645Y-118122086D01*
X159556649Y-118122093D01*
X159642809Y-118237187D01*
X159642812Y-118237190D01*
X159757906Y-118323350D01*
X159757913Y-118323354D01*
X159892620Y-118373596D01*
X159892627Y-118373598D01*
X159952155Y-118379999D01*
X159952172Y-118380000D01*
X160550000Y-118380000D01*
X160550000Y-117395686D01*
X160554394Y-117400080D01*
X160645606Y-117452741D01*
X160747339Y-117480000D01*
X160852661Y-117480000D01*
X160954394Y-117452741D01*
X161045606Y-117400080D01*
X161050000Y-117395686D01*
X161050000Y-118380000D01*
X161647828Y-118380000D01*
X161647844Y-118379999D01*
X161707372Y-118373598D01*
X161707379Y-118373596D01*
X161842086Y-118323354D01*
X161842093Y-118323350D01*
X161957187Y-118237190D01*
X161957190Y-118237187D01*
X162043350Y-118122093D01*
X162043354Y-118122086D01*
X162093596Y-117987379D01*
X162093598Y-117987372D01*
X162099999Y-117927844D01*
X162100000Y-117927827D01*
X162100000Y-117330000D01*
X161115686Y-117330000D01*
X161120080Y-117325606D01*
X161172741Y-117234394D01*
X161200000Y-117132661D01*
X161200000Y-117027339D01*
X161172741Y-116925606D01*
X161120080Y-116834394D01*
X161115686Y-116830000D01*
X162100000Y-116830000D01*
X162100000Y-116232172D01*
X162099999Y-116232155D01*
X162093598Y-116172627D01*
X162093596Y-116172620D01*
X162043354Y-116037913D01*
X162043350Y-116037906D01*
X161957190Y-115922812D01*
X161957187Y-115922809D01*
X161842093Y-115836649D01*
X161842086Y-115836645D01*
X161707379Y-115786403D01*
X161707373Y-115786401D01*
X161671778Y-115782574D01*
X161607228Y-115755835D01*
X161567381Y-115698441D01*
X161564888Y-115628616D01*
X161600542Y-115568528D01*
X161613913Y-115557710D01*
X161639139Y-115540047D01*
X161800047Y-115379139D01*
X161930568Y-115192734D01*
X162026739Y-114986496D01*
X162085635Y-114766692D01*
X162105468Y-114540000D01*
X162085635Y-114313308D01*
X162070438Y-114256592D01*
X162072101Y-114186744D01*
X162111263Y-114128881D01*
X162175492Y-114101377D01*
X162190213Y-114100500D01*
X169569787Y-114100500D01*
X169636826Y-114120185D01*
X169682581Y-114172989D01*
X169692525Y-114242147D01*
X169689564Y-114256582D01*
X169680826Y-114289193D01*
X169674365Y-114313306D01*
X169674364Y-114313313D01*
X169654532Y-114539998D01*
X169654532Y-114540001D01*
X169674364Y-114766686D01*
X169674366Y-114766697D01*
X169733258Y-114986488D01*
X169733261Y-114986497D01*
X169829431Y-115192732D01*
X169829432Y-115192734D01*
X169959954Y-115379141D01*
X170120858Y-115540045D01*
X170120861Y-115540047D01*
X170307266Y-115670568D01*
X170365275Y-115697618D01*
X170417714Y-115743791D01*
X170436866Y-115810984D01*
X170416650Y-115877865D01*
X170365275Y-115922381D01*
X170348272Y-115930310D01*
X170307267Y-115949431D01*
X170307265Y-115949432D01*
X170120858Y-116079954D01*
X169959954Y-116240858D01*
X169829432Y-116427265D01*
X169829431Y-116427267D01*
X169733261Y-116633502D01*
X169733258Y-116633511D01*
X169674366Y-116853302D01*
X169674364Y-116853313D01*
X169654532Y-117079998D01*
X169654532Y-117080001D01*
X169674364Y-117306686D01*
X169674366Y-117306697D01*
X169733258Y-117526488D01*
X169733261Y-117526497D01*
X169829431Y-117732732D01*
X169829432Y-117732734D01*
X169959954Y-117919141D01*
X170120858Y-118080045D01*
X170120861Y-118080047D01*
X170307266Y-118210568D01*
X170513504Y-118306739D01*
X170513509Y-118306740D01*
X170513511Y-118306741D01*
X170550552Y-118316666D01*
X170733308Y-118365635D01*
X170895230Y-118379801D01*
X170959998Y-118385468D01*
X170960000Y-118385468D01*
X170960002Y-118385468D01*
X171022511Y-118379999D01*
X171186692Y-118365635D01*
X171406496Y-118306739D01*
X171612734Y-118210568D01*
X171799139Y-118080047D01*
X171960047Y-117919139D01*
X172090568Y-117732734D01*
X172186739Y-117526496D01*
X172245635Y-117306692D01*
X172265468Y-117080000D01*
X172245635Y-116853308D01*
X172186739Y-116633504D01*
X172090568Y-116427266D01*
X171960047Y-116240861D01*
X171960045Y-116240858D01*
X171799141Y-116079954D01*
X171612734Y-115949432D01*
X171612728Y-115949429D01*
X171585038Y-115936517D01*
X171554724Y-115922381D01*
X171502285Y-115876210D01*
X171483133Y-115809017D01*
X171503348Y-115742135D01*
X171554725Y-115697618D01*
X171612734Y-115670568D01*
X171799139Y-115540047D01*
X171960047Y-115379139D01*
X172090568Y-115192734D01*
X172186739Y-114986496D01*
X172245635Y-114766692D01*
X172265468Y-114540000D01*
X172245635Y-114313308D01*
X172232308Y-114263573D01*
X172214362Y-114196593D01*
X172216025Y-114126743D01*
X172255188Y-114068881D01*
X172319417Y-114041377D01*
X172334137Y-114040500D01*
X182259903Y-114040500D01*
X182326942Y-114060185D01*
X182347584Y-114076819D01*
X182368058Y-114097293D01*
X182401543Y-114158616D01*
X182400152Y-114217067D01*
X182374366Y-114313302D01*
X182374364Y-114313313D01*
X182354532Y-114539998D01*
X182354532Y-114540001D01*
X182374364Y-114766686D01*
X182374366Y-114766697D01*
X182433258Y-114986488D01*
X182433261Y-114986497D01*
X182529431Y-115192732D01*
X182529432Y-115192734D01*
X182659954Y-115379141D01*
X182820858Y-115540045D01*
X182846086Y-115557710D01*
X182889711Y-115612287D01*
X182896905Y-115681785D01*
X182865382Y-115744140D01*
X182805153Y-115779554D01*
X182788221Y-115782574D01*
X182752626Y-115786401D01*
X182752620Y-115786403D01*
X182617913Y-115836645D01*
X182617906Y-115836649D01*
X182502812Y-115922809D01*
X182502809Y-115922812D01*
X182416649Y-116037906D01*
X182416645Y-116037913D01*
X182366403Y-116172620D01*
X182366401Y-116172627D01*
X182360000Y-116232155D01*
X182360000Y-116830000D01*
X183344314Y-116830000D01*
X183339920Y-116834394D01*
X183287259Y-116925606D01*
X183260000Y-117027339D01*
X183260000Y-117132661D01*
X183287259Y-117234394D01*
X183339920Y-117325606D01*
X183344314Y-117330000D01*
X182360000Y-117330000D01*
X182360000Y-117927844D01*
X182366401Y-117987372D01*
X182366403Y-117987379D01*
X182416645Y-118122086D01*
X182416649Y-118122093D01*
X182502809Y-118237187D01*
X182502812Y-118237190D01*
X182617906Y-118323350D01*
X182617913Y-118323354D01*
X182752620Y-118373596D01*
X182752627Y-118373598D01*
X182812155Y-118379999D01*
X182812172Y-118380000D01*
X183410000Y-118380000D01*
X183410000Y-117395686D01*
X183414394Y-117400080D01*
X183505606Y-117452741D01*
X183607339Y-117480000D01*
X183712661Y-117480000D01*
X183814394Y-117452741D01*
X183905606Y-117400080D01*
X183910000Y-117395686D01*
X183910000Y-118380000D01*
X184507828Y-118380000D01*
X184507844Y-118379999D01*
X184567372Y-118373598D01*
X184567379Y-118373596D01*
X184702086Y-118323354D01*
X184702093Y-118323350D01*
X184817187Y-118237190D01*
X184817190Y-118237187D01*
X184903350Y-118122093D01*
X184903354Y-118122086D01*
X184953596Y-117987379D01*
X184953598Y-117987372D01*
X184959999Y-117927844D01*
X184960000Y-117927827D01*
X184960000Y-117330000D01*
X183975686Y-117330000D01*
X183980080Y-117325606D01*
X184032741Y-117234394D01*
X184060000Y-117132661D01*
X184060000Y-117027339D01*
X184032741Y-116925606D01*
X183980080Y-116834394D01*
X183975686Y-116830000D01*
X184974379Y-116830000D01*
X185004021Y-116813813D01*
X185073713Y-116818796D01*
X185118063Y-116847298D01*
X187443181Y-119172416D01*
X187476666Y-119233739D01*
X187479500Y-119260097D01*
X187479500Y-120467870D01*
X187479501Y-120467876D01*
X187485908Y-120527483D01*
X187536202Y-120662328D01*
X187536206Y-120662335D01*
X187622452Y-120777544D01*
X187622455Y-120777547D01*
X187737664Y-120863793D01*
X187737671Y-120863797D01*
X187872517Y-120914091D01*
X187872516Y-120914091D01*
X187879444Y-120914835D01*
X187932127Y-120920500D01*
X189627872Y-120920499D01*
X189687483Y-120914091D01*
X189822331Y-120863796D01*
X189937546Y-120777546D01*
X190023796Y-120662331D01*
X190074091Y-120527483D01*
X190080500Y-120467873D01*
X190080499Y-120467845D01*
X190080678Y-120464547D01*
X190082183Y-120464627D01*
X190100112Y-120403326D01*
X190152868Y-120357514D01*
X190196465Y-120349981D01*
X190880000Y-119666446D01*
X190880000Y-119672661D01*
X190907259Y-119774394D01*
X190959920Y-119865606D01*
X191034394Y-119940080D01*
X191125606Y-119992741D01*
X191227339Y-120020000D01*
X191233553Y-120020000D01*
X190554526Y-120699025D01*
X190627513Y-120750132D01*
X190627521Y-120750136D01*
X190833668Y-120846264D01*
X190833682Y-120846269D01*
X191053389Y-120905139D01*
X191053400Y-120905141D01*
X191279998Y-120924966D01*
X191280002Y-120924966D01*
X191506599Y-120905141D01*
X191506610Y-120905139D01*
X191726317Y-120846269D01*
X191726331Y-120846264D01*
X191932478Y-120750136D01*
X192005471Y-120699024D01*
X191326447Y-120020000D01*
X191332661Y-120020000D01*
X191434394Y-119992741D01*
X191525606Y-119940080D01*
X191600080Y-119865606D01*
X191652741Y-119774394D01*
X191680000Y-119672661D01*
X191680000Y-119666447D01*
X192359024Y-120345471D01*
X192410136Y-120272478D01*
X192506264Y-120066331D01*
X192506269Y-120066317D01*
X192565139Y-119846610D01*
X192565141Y-119846599D01*
X192584966Y-119620002D01*
X192584966Y-119619997D01*
X192565141Y-119393400D01*
X192565139Y-119393389D01*
X192506269Y-119173682D01*
X192506264Y-119173668D01*
X192410136Y-118967521D01*
X192410132Y-118967513D01*
X192359025Y-118894526D01*
X191680000Y-119573551D01*
X191680000Y-119567339D01*
X191652741Y-119465606D01*
X191600080Y-119374394D01*
X191525606Y-119299920D01*
X191434394Y-119247259D01*
X191332661Y-119220000D01*
X191326448Y-119220000D01*
X192005472Y-118540974D01*
X191932478Y-118489863D01*
X191726331Y-118393735D01*
X191726317Y-118393730D01*
X191506610Y-118334860D01*
X191506599Y-118334858D01*
X191280002Y-118315034D01*
X191279998Y-118315034D01*
X191053400Y-118334858D01*
X191053389Y-118334860D01*
X190833682Y-118393730D01*
X190833673Y-118393734D01*
X190627516Y-118489866D01*
X190627512Y-118489868D01*
X190554526Y-118540973D01*
X190554526Y-118540974D01*
X191233553Y-119220000D01*
X191227339Y-119220000D01*
X191125606Y-119247259D01*
X191034394Y-119299920D01*
X190959920Y-119374394D01*
X190907259Y-119465606D01*
X190880000Y-119567339D01*
X190880000Y-119573552D01*
X190195799Y-118889351D01*
X190146805Y-118879505D01*
X190096622Y-118830889D01*
X190081981Y-118775366D01*
X190080900Y-118775423D01*
X190080854Y-118775429D01*
X190080853Y-118775426D01*
X190080676Y-118775436D01*
X190080499Y-118772141D01*
X190080499Y-118772128D01*
X190074091Y-118712517D01*
X190023796Y-118577669D01*
X190023795Y-118577668D01*
X190023793Y-118577664D01*
X189937547Y-118462455D01*
X189937544Y-118462452D01*
X189822335Y-118376206D01*
X189822328Y-118376202D01*
X189687482Y-118325908D01*
X189687483Y-118325908D01*
X189627883Y-118319501D01*
X189627881Y-118319500D01*
X189627873Y-118319500D01*
X189627865Y-118319500D01*
X188340097Y-118319500D01*
X188273058Y-118299815D01*
X188252416Y-118283181D01*
X184951941Y-114982706D01*
X184918456Y-114921383D01*
X184919847Y-114862931D01*
X184931332Y-114820070D01*
X184945635Y-114766692D01*
X184965468Y-114540000D01*
X184945635Y-114313308D01*
X184919847Y-114217066D01*
X184921510Y-114147217D01*
X184951939Y-114097294D01*
X189108713Y-109940521D01*
X189108716Y-109940520D01*
X189220520Y-109828716D01*
X189270639Y-109741904D01*
X189299577Y-109691785D01*
X189340501Y-109539057D01*
X189340501Y-109380943D01*
X189340501Y-109373348D01*
X189340500Y-109373330D01*
X189340500Y-108209090D01*
X189360185Y-108142051D01*
X189412101Y-108096706D01*
X189417830Y-108094035D01*
X189611401Y-107958495D01*
X189778495Y-107791401D01*
X189914035Y-107597830D01*
X190013903Y-107383663D01*
X190075063Y-107155408D01*
X190095659Y-106920000D01*
X190075063Y-106684592D01*
X190013903Y-106456337D01*
X189914035Y-106242171D01*
X189778495Y-106048599D01*
X189656179Y-105926283D01*
X189622696Y-105864963D01*
X189627680Y-105795271D01*
X189669551Y-105739337D01*
X189700529Y-105722422D01*
X189832086Y-105673354D01*
X189832093Y-105673350D01*
X189947187Y-105587190D01*
X189947190Y-105587187D01*
X190033350Y-105472093D01*
X190033354Y-105472086D01*
X190083596Y-105337379D01*
X190083598Y-105337372D01*
X190089999Y-105277844D01*
X190090000Y-105277827D01*
X190090000Y-104630000D01*
X189173012Y-104630000D01*
X189205925Y-104572993D01*
X189240000Y-104445826D01*
X189240000Y-104314174D01*
X189205925Y-104187007D01*
X189173012Y-104130000D01*
X190090000Y-104130000D01*
X190090000Y-103482172D01*
X190089999Y-103482155D01*
X190083598Y-103422627D01*
X190083596Y-103422620D01*
X190033354Y-103287913D01*
X190033350Y-103287906D01*
X189947190Y-103172812D01*
X189947187Y-103172809D01*
X189832093Y-103086649D01*
X189832086Y-103086645D01*
X189697379Y-103036403D01*
X189697372Y-103036401D01*
X189637844Y-103030000D01*
X188990000Y-103030000D01*
X188990000Y-103946988D01*
X188932993Y-103914075D01*
X188805826Y-103880000D01*
X188674174Y-103880000D01*
X188547007Y-103914075D01*
X188490000Y-103946988D01*
X188490000Y-103030000D01*
X187842155Y-103030000D01*
X187782627Y-103036401D01*
X187782620Y-103036403D01*
X187647913Y-103086645D01*
X187647906Y-103086649D01*
X187532812Y-103172809D01*
X187532809Y-103172812D01*
X187446649Y-103287906D01*
X187446645Y-103287913D01*
X187396403Y-103422620D01*
X187396401Y-103422627D01*
X187390000Y-103482155D01*
X187390000Y-104130000D01*
X188306988Y-104130000D01*
X188274075Y-104187007D01*
X188240000Y-104314174D01*
X188240000Y-104445826D01*
X188274075Y-104572993D01*
X188306988Y-104630000D01*
X187390000Y-104630000D01*
X187390000Y-105277844D01*
X187396401Y-105337372D01*
X187396403Y-105337379D01*
X187446645Y-105472086D01*
X187446649Y-105472093D01*
X187532809Y-105587187D01*
X187532812Y-105587190D01*
X187647906Y-105673350D01*
X187647913Y-105673354D01*
X187779470Y-105722421D01*
X187835403Y-105764292D01*
X187859821Y-105829756D01*
X187844970Y-105898029D01*
X187823819Y-105926284D01*
X187701503Y-106048600D01*
X187565965Y-106242169D01*
X187565964Y-106242171D01*
X187466098Y-106456335D01*
X187466094Y-106456344D01*
X187404938Y-106684586D01*
X187404936Y-106684596D01*
X187384341Y-106919999D01*
X187384341Y-106920000D01*
X187404936Y-107155403D01*
X187404938Y-107155413D01*
X187466094Y-107383655D01*
X187466096Y-107383659D01*
X187466097Y-107383663D01*
X187545845Y-107554683D01*
X187565965Y-107597830D01*
X187565967Y-107597834D01*
X187674281Y-107752521D01*
X187701505Y-107791401D01*
X187868599Y-107958495D01*
X187910414Y-107987774D01*
X188062165Y-108094032D01*
X188062167Y-108094033D01*
X188062170Y-108094035D01*
X188067898Y-108096706D01*
X188120339Y-108142872D01*
X188139500Y-108209090D01*
X188139500Y-109159902D01*
X188119815Y-109226941D01*
X188103181Y-109247583D01*
X185169428Y-112181335D01*
X185108105Y-112214820D01*
X185038413Y-112209836D01*
X184982480Y-112167964D01*
X184958063Y-112102500D01*
X184958218Y-112082857D01*
X184965468Y-112000000D01*
X184945635Y-111773308D01*
X184886739Y-111553504D01*
X184790568Y-111347266D01*
X184660047Y-111160861D01*
X184660045Y-111160858D01*
X184499141Y-110999954D01*
X184312734Y-110869432D01*
X184312728Y-110869429D01*
X184254725Y-110842382D01*
X184202285Y-110796210D01*
X184183133Y-110729017D01*
X184203348Y-110662135D01*
X184254725Y-110617618D01*
X184312734Y-110590568D01*
X184499139Y-110460047D01*
X184660047Y-110299139D01*
X184790568Y-110112734D01*
X184886739Y-109906496D01*
X184945635Y-109686692D01*
X184965468Y-109460000D01*
X184945635Y-109233308D01*
X184886739Y-109013504D01*
X184790568Y-108807266D01*
X184660047Y-108620861D01*
X184660045Y-108620858D01*
X184499141Y-108459954D01*
X184312734Y-108329432D01*
X184312728Y-108329429D01*
X184254725Y-108302382D01*
X184202285Y-108256210D01*
X184183133Y-108189017D01*
X184203348Y-108122135D01*
X184254725Y-108077618D01*
X184312734Y-108050568D01*
X184499139Y-107920047D01*
X184660047Y-107759139D01*
X184790568Y-107572734D01*
X184886739Y-107366496D01*
X184945635Y-107146692D01*
X184965468Y-106920000D01*
X184945635Y-106693308D01*
X184886739Y-106473504D01*
X184790568Y-106267266D01*
X184660047Y-106080861D01*
X184660045Y-106080858D01*
X184499141Y-105919954D01*
X184312734Y-105789432D01*
X184312728Y-105789429D01*
X184254725Y-105762382D01*
X184202285Y-105716210D01*
X184183133Y-105649017D01*
X184203348Y-105582135D01*
X184254725Y-105537618D01*
X184312734Y-105510568D01*
X184499139Y-105380047D01*
X184660047Y-105219139D01*
X184790568Y-105032734D01*
X184886739Y-104826496D01*
X184945635Y-104606692D01*
X184965468Y-104380000D01*
X184945635Y-104153308D01*
X184886739Y-103933504D01*
X184790568Y-103727266D01*
X184660047Y-103540861D01*
X184660045Y-103540858D01*
X184499141Y-103379954D01*
X184312734Y-103249432D01*
X184312732Y-103249431D01*
X184254725Y-103222382D01*
X184254132Y-103222105D01*
X184201694Y-103175934D01*
X184182542Y-103108740D01*
X184202758Y-103041859D01*
X184254134Y-102997341D01*
X184312484Y-102970132D01*
X184498820Y-102839657D01*
X184659657Y-102678820D01*
X184790134Y-102492482D01*
X184886265Y-102286326D01*
X184886269Y-102286317D01*
X184938872Y-102090000D01*
X183975686Y-102090000D01*
X183980080Y-102085606D01*
X184032741Y-101994394D01*
X184060000Y-101892661D01*
X184060000Y-101787339D01*
X184032741Y-101685606D01*
X183980080Y-101594394D01*
X183975686Y-101590000D01*
X184938872Y-101590000D01*
X184938872Y-101589999D01*
X184886269Y-101393682D01*
X184886265Y-101393673D01*
X184790132Y-101187514D01*
X184789544Y-101186495D01*
X184789421Y-101185989D01*
X184787846Y-101182611D01*
X184788525Y-101182294D01*
X184773075Y-101118594D01*
X184795930Y-101052568D01*
X184850853Y-101009380D01*
X184896934Y-101000500D01*
X186639677Y-101000500D01*
X186639693Y-101000501D01*
X186647289Y-101000501D01*
X186805400Y-101000501D01*
X186805403Y-101000501D01*
X186958131Y-100959577D01*
X187008250Y-100930639D01*
X187095062Y-100880520D01*
X187206866Y-100768716D01*
X187206866Y-100768714D01*
X187217074Y-100758507D01*
X187217076Y-100758504D01*
X190248506Y-97727074D01*
X190248511Y-97727070D01*
X190258714Y-97716866D01*
X190258716Y-97716866D01*
X190370520Y-97605062D01*
X190449577Y-97468130D01*
X190490500Y-97315403D01*
X190490500Y-96372714D01*
X190490501Y-96372701D01*
X190490501Y-96204598D01*
X190469926Y-96127813D01*
X190449577Y-96051870D01*
X190376640Y-95925538D01*
X190370524Y-95914944D01*
X190370518Y-95914936D01*
X190194000Y-95738418D01*
X189995586Y-95540005D01*
X189962102Y-95478683D01*
X189967086Y-95408992D01*
X189984002Y-95378014D01*
X190033350Y-95312093D01*
X190033354Y-95312086D01*
X190083596Y-95177379D01*
X190083598Y-95177372D01*
X190089999Y-95117844D01*
X190090000Y-95117827D01*
X190090000Y-94470000D01*
X189173012Y-94470000D01*
X189205925Y-94412993D01*
X189240000Y-94285826D01*
X189240000Y-94154174D01*
X189205925Y-94027007D01*
X189173012Y-93970000D01*
X190090000Y-93970000D01*
X190090000Y-93322172D01*
X190089999Y-93322155D01*
X190083598Y-93262627D01*
X190083596Y-93262620D01*
X190033354Y-93127913D01*
X190033350Y-93127906D01*
X189947190Y-93012812D01*
X189947187Y-93012809D01*
X189832093Y-92926649D01*
X189832086Y-92926645D01*
X189697379Y-92876403D01*
X189697372Y-92876401D01*
X189637844Y-92870000D01*
X188990000Y-92870000D01*
X188990000Y-93786988D01*
X188932993Y-93754075D01*
X188805826Y-93720000D01*
X188674174Y-93720000D01*
X188547007Y-93754075D01*
X188490000Y-93786988D01*
X188490000Y-92870000D01*
X187842155Y-92870000D01*
X187782627Y-92876401D01*
X187782620Y-92876403D01*
X187647913Y-92926645D01*
X187647906Y-92926649D01*
X187532812Y-93012809D01*
X187532809Y-93012812D01*
X187446649Y-93127906D01*
X187446645Y-93127913D01*
X187396403Y-93262620D01*
X187396401Y-93262627D01*
X187390000Y-93322155D01*
X187390000Y-93970000D01*
X188306988Y-93970000D01*
X188274075Y-94027007D01*
X188240000Y-94154174D01*
X188240000Y-94285826D01*
X188274075Y-94412993D01*
X188306988Y-94470000D01*
X187390000Y-94470000D01*
X187390000Y-94885500D01*
X187370315Y-94952539D01*
X187317511Y-94998294D01*
X187266000Y-95009500D01*
X182270098Y-95009500D01*
X182203059Y-94989815D01*
X182182417Y-94973181D01*
X179798819Y-92589583D01*
X179765334Y-92528260D01*
X179762500Y-92501902D01*
X179762500Y-89852396D01*
X179782185Y-89785357D01*
X179834989Y-89739602D01*
X179904147Y-89729658D01*
X179957625Y-89750822D01*
X179966588Y-89757098D01*
X179966592Y-89757100D01*
X180166715Y-89850419D01*
X180166729Y-89850424D01*
X180380013Y-89907573D01*
X180380023Y-89907575D01*
X180599999Y-89926821D01*
X180600001Y-89926821D01*
X180819976Y-89907575D01*
X180819986Y-89907573D01*
X181033270Y-89850424D01*
X181033284Y-89850419D01*
X181233407Y-89757100D01*
X181233417Y-89757094D01*
X181298188Y-89711741D01*
X180627447Y-89041000D01*
X180650160Y-89041000D01*
X180747061Y-89015036D01*
X180833940Y-88964876D01*
X180904876Y-88893940D01*
X180955036Y-88807061D01*
X180981000Y-88710160D01*
X180981000Y-88687447D01*
X181651740Y-89358187D01*
X181702910Y-89353711D01*
X181771410Y-89367478D01*
X181821593Y-89416093D01*
X181836388Y-89466652D01*
X181837146Y-89466571D01*
X181843908Y-89529483D01*
X181894202Y-89664328D01*
X181894206Y-89664335D01*
X181980452Y-89779544D01*
X181980455Y-89779547D01*
X182095664Y-89865793D01*
X182095671Y-89865797D01*
X182230517Y-89916091D01*
X182230516Y-89916091D01*
X182237444Y-89916835D01*
X182290127Y-89922500D01*
X183909872Y-89922499D01*
X183969483Y-89916091D01*
X184104331Y-89865796D01*
X184219546Y-89779546D01*
X184305796Y-89664331D01*
X184356091Y-89529483D01*
X184362500Y-89469873D01*
X184362499Y-87850128D01*
X184356091Y-87790517D01*
X184354971Y-87787515D01*
X184305797Y-87655671D01*
X184305793Y-87655664D01*
X184219547Y-87540455D01*
X184219544Y-87540452D01*
X184104335Y-87454206D01*
X184104328Y-87454202D01*
X183969482Y-87403908D01*
X183969483Y-87403908D01*
X183909883Y-87397501D01*
X183909881Y-87397500D01*
X183909873Y-87397500D01*
X183909864Y-87397500D01*
X182290129Y-87397500D01*
X182290123Y-87397501D01*
X182230516Y-87403908D01*
X182095671Y-87454202D01*
X182095664Y-87454206D01*
X181980455Y-87540452D01*
X181980452Y-87540455D01*
X181894206Y-87655664D01*
X181894202Y-87655671D01*
X181843908Y-87790517D01*
X181837145Y-87853428D01*
X181836158Y-87853321D01*
X181814285Y-87915300D01*
X181759103Y-87958156D01*
X181702909Y-87966288D01*
X181651740Y-87961810D01*
X180981000Y-88632551D01*
X180981000Y-88609840D01*
X180955036Y-88512939D01*
X180904876Y-88426060D01*
X180833940Y-88355124D01*
X180747061Y-88304964D01*
X180650160Y-88279000D01*
X180627448Y-88279000D01*
X181298188Y-87608259D01*
X181298187Y-87608258D01*
X181233411Y-87562901D01*
X181233405Y-87562898D01*
X181033284Y-87469580D01*
X181033270Y-87469575D01*
X180819986Y-87412426D01*
X180819976Y-87412424D01*
X180600001Y-87393179D01*
X180599999Y-87393179D01*
X180380023Y-87412424D01*
X180380013Y-87412426D01*
X180166729Y-87469575D01*
X180166720Y-87469579D01*
X179966590Y-87562901D01*
X179901811Y-87608258D01*
X180572553Y-88279000D01*
X180549840Y-88279000D01*
X180452939Y-88304964D01*
X180366060Y-88355124D01*
X180295124Y-88426060D01*
X180244964Y-88512939D01*
X180219000Y-88609840D01*
X180219000Y-88632553D01*
X179797571Y-88211124D01*
X179764086Y-88149801D01*
X179762672Y-88141695D01*
X179762500Y-88141053D01*
X179762500Y-88141048D01*
X179721577Y-87988321D01*
X179706271Y-87961810D01*
X179642524Y-87851395D01*
X179642521Y-87851391D01*
X179642520Y-87851389D01*
X179530716Y-87739585D01*
X179530715Y-87739584D01*
X179526385Y-87735254D01*
X179526374Y-87735244D01*
X179027485Y-87236355D01*
X179027483Y-87236352D01*
X178908612Y-87117481D01*
X178908611Y-87117480D01*
X178821799Y-87067360D01*
X178821799Y-87067359D01*
X178821795Y-87067358D01*
X178771680Y-87038423D01*
X178618952Y-86997499D01*
X178460838Y-86997499D01*
X178453242Y-86997499D01*
X178453226Y-86997500D01*
X177746775Y-86997500D01*
X177746759Y-86997499D01*
X177739163Y-86997499D01*
X177581048Y-86997499D01*
X177440841Y-87035067D01*
X177428316Y-87038424D01*
X177291392Y-87117477D01*
X177291387Y-87117481D01*
X176654838Y-87754030D01*
X176593515Y-87787515D01*
X176523823Y-87782531D01*
X176479476Y-87754030D01*
X176414621Y-87689175D01*
X176414615Y-87689170D01*
X176233666Y-87562468D01*
X176233662Y-87562466D01*
X176186457Y-87540454D01*
X176033450Y-87469106D01*
X176033447Y-87469105D01*
X176033445Y-87469104D01*
X175820070Y-87411930D01*
X175820062Y-87411929D01*
X175600002Y-87392677D01*
X175599998Y-87392677D01*
X175379937Y-87411929D01*
X175379929Y-87411930D01*
X175166554Y-87469104D01*
X175166548Y-87469107D01*
X174966340Y-87562465D01*
X174966338Y-87562466D01*
X174785377Y-87689175D01*
X174629175Y-87845377D01*
X174502466Y-88026338D01*
X174502465Y-88026340D01*
X174462382Y-88112299D01*
X174416209Y-88164738D01*
X174349016Y-88183890D01*
X174282135Y-88163674D01*
X174237618Y-88112299D01*
X174197534Y-88026340D01*
X174197533Y-88026338D01*
X174070827Y-87845381D01*
X174007977Y-87782531D01*
X173914620Y-87689174D01*
X173914616Y-87689171D01*
X173914615Y-87689170D01*
X173733666Y-87562468D01*
X173733662Y-87562466D01*
X173686457Y-87540454D01*
X173533450Y-87469106D01*
X173533447Y-87469105D01*
X173533445Y-87469104D01*
X173320070Y-87411930D01*
X173320062Y-87411929D01*
X173100002Y-87392677D01*
X173099998Y-87392677D01*
X172879937Y-87411929D01*
X172879929Y-87411930D01*
X172666554Y-87469104D01*
X172666548Y-87469107D01*
X172466340Y-87562465D01*
X172466338Y-87562466D01*
X172285377Y-87689175D01*
X172129175Y-87845377D01*
X172002466Y-88026338D01*
X172002465Y-88026340D01*
X171962382Y-88112299D01*
X171916209Y-88164738D01*
X171849016Y-88183890D01*
X171782135Y-88163674D01*
X171737618Y-88112299D01*
X171697534Y-88026340D01*
X171697533Y-88026338D01*
X171570827Y-87845381D01*
X171507977Y-87782531D01*
X171414620Y-87689174D01*
X171414616Y-87689171D01*
X171414615Y-87689170D01*
X171233666Y-87562468D01*
X171233662Y-87562466D01*
X171186457Y-87540454D01*
X171033450Y-87469106D01*
X171033447Y-87469105D01*
X171033445Y-87469104D01*
X170820070Y-87411930D01*
X170820062Y-87411929D01*
X170600002Y-87392677D01*
X170599998Y-87392677D01*
X170379937Y-87411929D01*
X170379929Y-87411930D01*
X170166554Y-87469104D01*
X170166548Y-87469107D01*
X169966340Y-87562465D01*
X169966338Y-87562466D01*
X169785377Y-87689175D01*
X169629175Y-87845377D01*
X169502466Y-88026338D01*
X169502465Y-88026340D01*
X169462382Y-88112299D01*
X169416209Y-88164738D01*
X169349016Y-88183890D01*
X169282135Y-88163674D01*
X169237618Y-88112299D01*
X169197534Y-88026340D01*
X169197533Y-88026338D01*
X169070827Y-87845381D01*
X169007977Y-87782531D01*
X168914620Y-87689174D01*
X168914616Y-87689171D01*
X168914615Y-87689170D01*
X168733666Y-87562468D01*
X168733662Y-87562466D01*
X168686457Y-87540454D01*
X168533450Y-87469106D01*
X168533447Y-87469105D01*
X168533445Y-87469104D01*
X168320070Y-87411930D01*
X168320062Y-87411929D01*
X168100002Y-87392677D01*
X168099998Y-87392677D01*
X167879937Y-87411929D01*
X167879929Y-87411930D01*
X167666554Y-87469104D01*
X167666548Y-87469107D01*
X167466340Y-87562465D01*
X167466338Y-87562466D01*
X167285377Y-87689175D01*
X167129175Y-87845377D01*
X167002466Y-88026338D01*
X167002465Y-88026340D01*
X166962382Y-88112299D01*
X166916209Y-88164738D01*
X166849016Y-88183890D01*
X166782135Y-88163674D01*
X166737618Y-88112299D01*
X166697534Y-88026340D01*
X166697533Y-88026338D01*
X166570827Y-87845381D01*
X166507977Y-87782531D01*
X166414620Y-87689174D01*
X166414616Y-87689171D01*
X166414615Y-87689170D01*
X166233666Y-87562468D01*
X166233662Y-87562466D01*
X166186457Y-87540454D01*
X166033450Y-87469106D01*
X166033447Y-87469105D01*
X166033445Y-87469104D01*
X165820070Y-87411930D01*
X165820062Y-87411929D01*
X165600002Y-87392677D01*
X165599998Y-87392677D01*
X165379937Y-87411929D01*
X165379929Y-87411930D01*
X165166554Y-87469104D01*
X165166548Y-87469107D01*
X164966340Y-87562465D01*
X164966338Y-87562466D01*
X164785377Y-87689175D01*
X164629175Y-87845377D01*
X164502466Y-88026338D01*
X164502465Y-88026340D01*
X164462382Y-88112299D01*
X164416209Y-88164738D01*
X164349016Y-88183890D01*
X164282135Y-88163674D01*
X164237618Y-88112299D01*
X164197534Y-88026340D01*
X164197533Y-88026338D01*
X164070827Y-87845381D01*
X164007977Y-87782531D01*
X163914620Y-87689174D01*
X163914616Y-87689171D01*
X163914615Y-87689170D01*
X163733666Y-87562468D01*
X163733662Y-87562466D01*
X163686457Y-87540454D01*
X163533450Y-87469106D01*
X163533447Y-87469105D01*
X163533445Y-87469104D01*
X163320070Y-87411930D01*
X163320062Y-87411929D01*
X163100002Y-87392677D01*
X163099998Y-87392677D01*
X162879937Y-87411929D01*
X162879929Y-87411930D01*
X162666554Y-87469104D01*
X162666548Y-87469107D01*
X162466340Y-87562465D01*
X162466338Y-87562466D01*
X162285377Y-87689175D01*
X162129175Y-87845377D01*
X162002466Y-88026338D01*
X162002465Y-88026340D01*
X161962382Y-88112299D01*
X161916209Y-88164738D01*
X161849016Y-88183890D01*
X161782135Y-88163674D01*
X161737618Y-88112299D01*
X161697534Y-88026340D01*
X161697533Y-88026338D01*
X161570827Y-87845381D01*
X161507977Y-87782531D01*
X161414620Y-87689174D01*
X161414616Y-87689171D01*
X161414615Y-87689170D01*
X161233666Y-87562468D01*
X161233662Y-87562466D01*
X161186457Y-87540454D01*
X161033450Y-87469106D01*
X161033447Y-87469105D01*
X161033445Y-87469104D01*
X160820070Y-87411930D01*
X160820062Y-87411929D01*
X160600002Y-87392677D01*
X160599998Y-87392677D01*
X160379937Y-87411929D01*
X160379929Y-87411930D01*
X160166554Y-87469104D01*
X160166548Y-87469107D01*
X159966340Y-87562465D01*
X159966338Y-87562466D01*
X159785377Y-87689175D01*
X159629175Y-87845377D01*
X159502466Y-88026338D01*
X159502465Y-88026340D01*
X159462382Y-88112299D01*
X159416209Y-88164738D01*
X159349016Y-88183890D01*
X159282135Y-88163674D01*
X159237618Y-88112299D01*
X159197534Y-88026340D01*
X159197533Y-88026338D01*
X159070827Y-87845381D01*
X159007977Y-87782531D01*
X158914620Y-87689174D01*
X158914616Y-87689171D01*
X158914615Y-87689170D01*
X158733666Y-87562468D01*
X158733662Y-87562466D01*
X158686457Y-87540454D01*
X158533450Y-87469106D01*
X158533447Y-87469105D01*
X158533445Y-87469104D01*
X158320070Y-87411930D01*
X158320062Y-87411929D01*
X158100002Y-87392677D01*
X158099998Y-87392677D01*
X157879937Y-87411929D01*
X157879929Y-87411930D01*
X157666554Y-87469104D01*
X157666548Y-87469107D01*
X157466340Y-87562465D01*
X157466338Y-87562466D01*
X157285377Y-87689175D01*
X157129175Y-87845377D01*
X157002466Y-88026338D01*
X157002465Y-88026340D01*
X156962382Y-88112299D01*
X156916209Y-88164738D01*
X156849016Y-88183890D01*
X156782135Y-88163674D01*
X156737618Y-88112299D01*
X156697534Y-88026340D01*
X156697533Y-88026338D01*
X156570827Y-87845381D01*
X156507977Y-87782531D01*
X156414620Y-87689174D01*
X156414616Y-87689171D01*
X156414615Y-87689170D01*
X156233666Y-87562468D01*
X156233662Y-87562466D01*
X156186457Y-87540454D01*
X156033450Y-87469106D01*
X156033447Y-87469105D01*
X156033445Y-87469104D01*
X155820070Y-87411930D01*
X155820062Y-87411929D01*
X155600002Y-87392677D01*
X155599998Y-87392677D01*
X155379937Y-87411929D01*
X155379929Y-87411930D01*
X155166554Y-87469104D01*
X155166548Y-87469107D01*
X154966340Y-87562465D01*
X154966338Y-87562466D01*
X154785377Y-87689175D01*
X154629175Y-87845377D01*
X154502466Y-88026338D01*
X154502465Y-88026340D01*
X154462382Y-88112299D01*
X154416209Y-88164738D01*
X154349016Y-88183890D01*
X154282135Y-88163674D01*
X154237618Y-88112299D01*
X154197534Y-88026340D01*
X154197533Y-88026338D01*
X154070827Y-87845381D01*
X154007977Y-87782531D01*
X153914620Y-87689174D01*
X153914616Y-87689171D01*
X153914615Y-87689170D01*
X153733666Y-87562468D01*
X153733662Y-87562466D01*
X153686457Y-87540454D01*
X153533450Y-87469106D01*
X153533447Y-87469105D01*
X153533445Y-87469104D01*
X153320070Y-87411930D01*
X153320062Y-87411929D01*
X153100002Y-87392677D01*
X153099998Y-87392677D01*
X152879937Y-87411929D01*
X152879929Y-87411930D01*
X152666554Y-87469104D01*
X152666543Y-87469108D01*
X152576404Y-87511141D01*
X152507327Y-87521633D01*
X152443543Y-87493113D01*
X152405304Y-87434636D01*
X152400000Y-87398759D01*
X152400000Y-59921240D01*
X152419685Y-59854201D01*
X152472489Y-59808446D01*
X152541647Y-59798502D01*
X152576399Y-59808856D01*
X152666550Y-59850894D01*
X152879932Y-59908070D01*
X153037123Y-59921822D01*
X153099998Y-59927323D01*
X153100000Y-59927323D01*
X153100002Y-59927323D01*
X153155017Y-59922509D01*
X153320068Y-59908070D01*
X153533450Y-59850894D01*
X153733662Y-59757534D01*
X153914620Y-59630826D01*
X154070826Y-59474620D01*
X154197534Y-59293662D01*
X154237618Y-59207700D01*
X154283790Y-59155261D01*
X154350983Y-59136109D01*
X154417864Y-59156324D01*
X154462382Y-59207701D01*
X154502464Y-59293658D01*
X154502468Y-59293666D01*
X154629170Y-59474615D01*
X154629175Y-59474621D01*
X154785378Y-59630824D01*
X154785384Y-59630829D01*
X154966333Y-59757531D01*
X154966335Y-59757532D01*
X154966338Y-59757534D01*
X155166550Y-59850894D01*
X155379932Y-59908070D01*
X155537123Y-59921822D01*
X155599998Y-59927323D01*
X155600000Y-59927323D01*
X155600002Y-59927323D01*
X155655017Y-59922509D01*
X155820068Y-59908070D01*
X156033450Y-59850894D01*
X156233662Y-59757534D01*
X156414620Y-59630826D01*
X156570826Y-59474620D01*
X156697534Y-59293662D01*
X156737618Y-59207700D01*
X156783790Y-59155261D01*
X156850983Y-59136109D01*
X156917864Y-59156324D01*
X156962382Y-59207701D01*
X157002464Y-59293658D01*
X157002468Y-59293666D01*
X157129170Y-59474615D01*
X157129175Y-59474621D01*
X157285378Y-59630824D01*
X157285384Y-59630829D01*
X157466333Y-59757531D01*
X157466335Y-59757532D01*
X157466338Y-59757534D01*
X157666550Y-59850894D01*
X157879932Y-59908070D01*
X158037123Y-59921822D01*
X158099998Y-59927323D01*
X158100000Y-59927323D01*
X158100002Y-59927323D01*
X158155017Y-59922509D01*
X158320068Y-59908070D01*
X158533450Y-59850894D01*
X158733662Y-59757534D01*
X158914620Y-59630826D01*
X159070826Y-59474620D01*
X159197534Y-59293662D01*
X159237618Y-59207700D01*
X159283790Y-59155261D01*
X159350983Y-59136109D01*
X159417864Y-59156324D01*
X159462382Y-59207701D01*
X159502464Y-59293658D01*
X159502468Y-59293666D01*
X159629170Y-59474615D01*
X159629175Y-59474621D01*
X159785378Y-59630824D01*
X159785384Y-59630829D01*
X159966333Y-59757531D01*
X159966335Y-59757532D01*
X159966338Y-59757534D01*
X160166550Y-59850894D01*
X160379932Y-59908070D01*
X160537123Y-59921822D01*
X160599998Y-59927323D01*
X160600000Y-59927323D01*
X160600002Y-59927323D01*
X160655017Y-59922509D01*
X160820068Y-59908070D01*
X161033450Y-59850894D01*
X161233662Y-59757534D01*
X161414620Y-59630826D01*
X161570826Y-59474620D01*
X161697534Y-59293662D01*
X161737618Y-59207700D01*
X161783790Y-59155261D01*
X161850983Y-59136109D01*
X161917864Y-59156324D01*
X161962382Y-59207701D01*
X162002464Y-59293658D01*
X162002468Y-59293666D01*
X162129170Y-59474615D01*
X162129175Y-59474621D01*
X162285378Y-59630824D01*
X162285384Y-59630829D01*
X162466333Y-59757531D01*
X162466335Y-59757532D01*
X162466338Y-59757534D01*
X162666550Y-59850894D01*
X162879932Y-59908070D01*
X163037123Y-59921822D01*
X163099998Y-59927323D01*
X163100000Y-59927323D01*
X163100002Y-59927323D01*
X163155017Y-59922509D01*
X163320068Y-59908070D01*
X163533450Y-59850894D01*
X163733662Y-59757534D01*
X163914620Y-59630826D01*
X164070826Y-59474620D01*
X164197534Y-59293662D01*
X164237618Y-59207700D01*
X164283790Y-59155261D01*
X164350983Y-59136109D01*
X164417864Y-59156324D01*
X164462382Y-59207701D01*
X164502464Y-59293658D01*
X164502468Y-59293666D01*
X164629170Y-59474615D01*
X164629175Y-59474621D01*
X164785378Y-59630824D01*
X164785384Y-59630829D01*
X164966333Y-59757531D01*
X164966335Y-59757532D01*
X164966338Y-59757534D01*
X165166550Y-59850894D01*
X165379932Y-59908070D01*
X165537123Y-59921822D01*
X165599998Y-59927323D01*
X165600000Y-59927323D01*
X165600002Y-59927323D01*
X165655017Y-59922509D01*
X165820068Y-59908070D01*
X166033450Y-59850894D01*
X166233662Y-59757534D01*
X166414620Y-59630826D01*
X166570826Y-59474620D01*
X166697534Y-59293662D01*
X166737618Y-59207700D01*
X166783790Y-59155261D01*
X166850983Y-59136109D01*
X166917864Y-59156324D01*
X166962382Y-59207701D01*
X167002464Y-59293658D01*
X167002468Y-59293666D01*
X167129170Y-59474615D01*
X167129175Y-59474621D01*
X167285378Y-59630824D01*
X167285384Y-59630829D01*
X167466333Y-59757531D01*
X167466335Y-59757532D01*
X167466338Y-59757534D01*
X167666550Y-59850894D01*
X167879932Y-59908070D01*
X168037123Y-59921822D01*
X168099998Y-59927323D01*
X168100000Y-59927323D01*
X168100002Y-59927323D01*
X168155017Y-59922509D01*
X168320068Y-59908070D01*
X168533450Y-59850894D01*
X168733662Y-59757534D01*
X168914620Y-59630826D01*
X169070826Y-59474620D01*
X169197534Y-59293662D01*
X169237618Y-59207700D01*
X169283790Y-59155261D01*
X169350983Y-59136109D01*
X169417864Y-59156324D01*
X169462382Y-59207701D01*
X169502464Y-59293658D01*
X169502468Y-59293666D01*
X169629170Y-59474615D01*
X169629175Y-59474621D01*
X169785378Y-59630824D01*
X169785384Y-59630829D01*
X169966333Y-59757531D01*
X169966335Y-59757532D01*
X169966338Y-59757534D01*
X170166550Y-59850894D01*
X170379932Y-59908070D01*
X170537123Y-59921822D01*
X170599998Y-59927323D01*
X170600000Y-59927323D01*
X170600002Y-59927323D01*
X170655017Y-59922509D01*
X170820068Y-59908070D01*
X171033450Y-59850894D01*
X171233662Y-59757534D01*
X171414620Y-59630826D01*
X171570826Y-59474620D01*
X171697534Y-59293662D01*
X171737618Y-59207700D01*
X171783790Y-59155261D01*
X171850983Y-59136109D01*
X171917864Y-59156324D01*
X171962382Y-59207701D01*
X172002464Y-59293658D01*
X172002468Y-59293666D01*
X172129170Y-59474615D01*
X172129175Y-59474621D01*
X172285378Y-59630824D01*
X172285384Y-59630829D01*
X172466333Y-59757531D01*
X172466335Y-59757532D01*
X172466338Y-59757534D01*
X172666550Y-59850894D01*
X172879932Y-59908070D01*
X173037123Y-59921822D01*
X173099998Y-59927323D01*
X173100000Y-59927323D01*
X173100002Y-59927323D01*
X173155017Y-59922509D01*
X173320068Y-59908070D01*
X173533450Y-59850894D01*
X173733662Y-59757534D01*
X173914620Y-59630826D01*
X174070826Y-59474620D01*
X174197534Y-59293662D01*
X174237618Y-59207700D01*
X174283790Y-59155261D01*
X174350983Y-59136109D01*
X174417864Y-59156324D01*
X174462382Y-59207701D01*
X174502464Y-59293658D01*
X174502468Y-59293666D01*
X174629170Y-59474615D01*
X174629175Y-59474621D01*
X174785378Y-59630824D01*
X174785384Y-59630829D01*
X174966333Y-59757531D01*
X174966335Y-59757532D01*
X174966338Y-59757534D01*
X175166550Y-59850894D01*
X175379932Y-59908070D01*
X175537123Y-59921822D01*
X175599998Y-59927323D01*
X175600000Y-59927323D01*
X175600002Y-59927323D01*
X175655017Y-59922509D01*
X175820068Y-59908070D01*
X176033450Y-59850894D01*
X176233662Y-59757534D01*
X176414620Y-59630826D01*
X176570826Y-59474620D01*
X176697534Y-59293662D01*
X176737618Y-59207700D01*
X176783790Y-59155261D01*
X176850983Y-59136109D01*
X176917864Y-59156324D01*
X176962382Y-59207701D01*
X177002464Y-59293658D01*
X177002468Y-59293666D01*
X177129170Y-59474615D01*
X177129175Y-59474621D01*
X177285378Y-59630824D01*
X177285384Y-59630829D01*
X177466333Y-59757531D01*
X177466335Y-59757532D01*
X177466338Y-59757534D01*
X177666550Y-59850894D01*
X177879932Y-59908070D01*
X178037123Y-59921822D01*
X178099998Y-59927323D01*
X178100000Y-59927323D01*
X178100002Y-59927323D01*
X178155017Y-59922509D01*
X178320068Y-59908070D01*
X178533450Y-59850894D01*
X178733662Y-59757534D01*
X178914620Y-59630826D01*
X179070826Y-59474620D01*
X179197534Y-59293662D01*
X179237894Y-59207108D01*
X179284066Y-59154669D01*
X179351259Y-59135517D01*
X179418140Y-59155732D01*
X179462658Y-59207109D01*
X179502898Y-59293405D01*
X179502901Y-59293411D01*
X179548258Y-59358187D01*
X179548259Y-59358188D01*
X180219000Y-58687447D01*
X180219000Y-58710160D01*
X180244964Y-58807061D01*
X180295124Y-58893940D01*
X180366060Y-58964876D01*
X180452939Y-59015036D01*
X180549840Y-59041000D01*
X180572553Y-59041000D01*
X179901810Y-59711740D01*
X179966590Y-59757099D01*
X179966592Y-59757100D01*
X180166715Y-59850419D01*
X180166729Y-59850424D01*
X180380013Y-59907573D01*
X180380023Y-59907575D01*
X180599999Y-59926821D01*
X180600001Y-59926821D01*
X180819976Y-59907575D01*
X180819986Y-59907573D01*
X181033270Y-59850424D01*
X181033284Y-59850419D01*
X181233407Y-59757100D01*
X181233417Y-59757094D01*
X181298188Y-59711741D01*
X180627448Y-59041000D01*
X180650160Y-59041000D01*
X180747061Y-59015036D01*
X180833940Y-58964876D01*
X180904876Y-58893940D01*
X180955036Y-58807061D01*
X180981000Y-58710160D01*
X180981000Y-58687447D01*
X181651741Y-59358188D01*
X181697094Y-59293417D01*
X181697097Y-59293412D01*
X181737340Y-59207110D01*
X181783512Y-59154670D01*
X181850705Y-59135517D01*
X181917587Y-59155732D01*
X181962105Y-59207108D01*
X181962106Y-59207110D01*
X182002464Y-59293658D01*
X182002466Y-59293661D01*
X182002468Y-59293666D01*
X182129170Y-59474615D01*
X182129175Y-59474621D01*
X182285378Y-59630824D01*
X182285384Y-59630829D01*
X182466333Y-59757531D01*
X182466335Y-59757532D01*
X182466338Y-59757534D01*
X182666550Y-59850894D01*
X182879932Y-59908070D01*
X183037123Y-59921822D01*
X183099998Y-59927323D01*
X183100000Y-59927323D01*
X183100002Y-59927323D01*
X183155017Y-59922509D01*
X183320068Y-59908070D01*
X183533450Y-59850894D01*
X183733662Y-59757534D01*
X183914620Y-59630826D01*
X184070826Y-59474620D01*
X184197534Y-59293662D01*
X184290894Y-59093450D01*
X184348070Y-58880068D01*
X184367323Y-58660000D01*
X184348070Y-58439932D01*
X184290894Y-58226550D01*
X184197534Y-58026339D01*
X184070826Y-57845380D01*
X183914620Y-57689174D01*
X183914616Y-57689171D01*
X183914615Y-57689170D01*
X183753377Y-57576270D01*
X183709752Y-57521693D01*
X183700500Y-57474695D01*
X183700500Y-55880000D01*
X194022462Y-55880000D01*
X194042193Y-56281629D01*
X194042193Y-56281635D01*
X194042194Y-56281637D01*
X194101194Y-56679386D01*
X194198904Y-57069462D01*
X194334361Y-57448040D01*
X194334369Y-57448060D01*
X194506294Y-57811566D01*
X194506296Y-57811569D01*
X194713023Y-58156473D01*
X194952553Y-58479443D01*
X194952556Y-58479447D01*
X195222602Y-58777397D01*
X195520552Y-59047443D01*
X195520556Y-59047446D01*
X195843526Y-59286976D01*
X195854688Y-59293666D01*
X196188434Y-59493706D01*
X196551940Y-59665631D01*
X196551954Y-59665636D01*
X196551959Y-59665638D01*
X196680806Y-59711740D01*
X196930548Y-59801099D01*
X197320610Y-59898805D01*
X197718371Y-59957807D01*
X198120000Y-59977538D01*
X198521629Y-59957807D01*
X198919390Y-59898805D01*
X199309452Y-59801099D01*
X199688060Y-59665631D01*
X200051566Y-59493706D01*
X200396470Y-59286978D01*
X200504162Y-59207109D01*
X200719443Y-59047446D01*
X200719447Y-59047443D01*
X200719447Y-59047442D01*
X200719451Y-59047440D01*
X201017397Y-58777397D01*
X201287440Y-58479451D01*
X201300388Y-58461992D01*
X201526976Y-58156473D01*
X201526978Y-58156470D01*
X201733706Y-57811566D01*
X201905631Y-57448060D01*
X202041099Y-57069452D01*
X202138805Y-56679390D01*
X202197807Y-56281629D01*
X202217538Y-55880000D01*
X202197807Y-55478371D01*
X202138805Y-55080610D01*
X202041099Y-54690548D01*
X201905631Y-54311940D01*
X201733706Y-53948434D01*
X201526978Y-53603530D01*
X201526976Y-53603526D01*
X201287446Y-53280556D01*
X201287443Y-53280552D01*
X201017397Y-52982602D01*
X200719447Y-52712556D01*
X200719443Y-52712553D01*
X200396473Y-52473023D01*
X200051569Y-52266296D01*
X200051570Y-52266296D01*
X200051566Y-52266294D01*
X199688060Y-52094369D01*
X199688040Y-52094361D01*
X199309462Y-51958904D01*
X199309456Y-51958902D01*
X199309452Y-51958901D01*
X198919390Y-51861195D01*
X198919389Y-51861194D01*
X198919386Y-51861194D01*
X198521637Y-51802194D01*
X198521635Y-51802193D01*
X198521629Y-51802193D01*
X198120000Y-51782462D01*
X197718371Y-51802193D01*
X197718365Y-51802193D01*
X197718362Y-51802194D01*
X197320613Y-51861194D01*
X197124029Y-51910436D01*
X196930548Y-51958901D01*
X196930545Y-51958901D01*
X196930537Y-51958904D01*
X196551959Y-52094361D01*
X196551939Y-52094369D01*
X196308661Y-52209431D01*
X196199685Y-52260973D01*
X196188430Y-52266296D01*
X195843526Y-52473023D01*
X195520556Y-52712553D01*
X195520552Y-52712556D01*
X195222602Y-52982602D01*
X194952556Y-53280552D01*
X194952553Y-53280556D01*
X194713023Y-53603526D01*
X194506296Y-53948430D01*
X194334369Y-54311939D01*
X194334361Y-54311959D01*
X194198904Y-54690537D01*
X194101194Y-55080613D01*
X194042194Y-55478362D01*
X194042193Y-55478371D01*
X194022462Y-55880000D01*
X183700500Y-55880000D01*
X183700500Y-54410049D01*
X183720185Y-54343010D01*
X183736819Y-54322368D01*
X183880045Y-54179141D01*
X183880047Y-54179139D01*
X184010568Y-53992734D01*
X184106739Y-53786496D01*
X184165635Y-53566692D01*
X184185468Y-53340000D01*
X184165635Y-53113308D01*
X184106739Y-52893504D01*
X184010568Y-52687266D01*
X183880047Y-52500861D01*
X183880045Y-52500858D01*
X183719141Y-52339954D01*
X183532734Y-52209432D01*
X183532732Y-52209431D01*
X183326497Y-52113261D01*
X183326488Y-52113258D01*
X183106697Y-52054366D01*
X183106693Y-52054365D01*
X183106692Y-52054365D01*
X183106691Y-52054364D01*
X183106686Y-52054364D01*
X182880002Y-52034532D01*
X182879998Y-52034532D01*
X182653313Y-52054364D01*
X182653302Y-52054366D01*
X182433511Y-52113258D01*
X182433502Y-52113261D01*
X182227267Y-52209431D01*
X182227265Y-52209432D01*
X182040858Y-52339954D01*
X181879954Y-52500858D01*
X181749432Y-52687265D01*
X181749429Y-52687270D01*
X181742104Y-52702979D01*
X181695929Y-52755417D01*
X181628735Y-52774566D01*
X181561855Y-52754347D01*
X181517341Y-52702973D01*
X181510133Y-52687515D01*
X181510132Y-52687513D01*
X181459025Y-52614526D01*
X180780000Y-53293551D01*
X180780000Y-53287339D01*
X180752741Y-53185606D01*
X180700080Y-53094394D01*
X180625606Y-53019920D01*
X180534394Y-52967259D01*
X180432661Y-52940000D01*
X180426448Y-52940000D01*
X181105472Y-52260974D01*
X181032478Y-52209863D01*
X180826331Y-52113735D01*
X180826317Y-52113730D01*
X180606610Y-52054860D01*
X180606599Y-52054858D01*
X180380002Y-52035034D01*
X180379998Y-52035034D01*
X180153400Y-52054858D01*
X180153389Y-52054860D01*
X179933682Y-52113730D01*
X179933673Y-52113734D01*
X179727516Y-52209866D01*
X179727512Y-52209868D01*
X179654526Y-52260973D01*
X179654526Y-52260974D01*
X180333553Y-52940000D01*
X180327339Y-52940000D01*
X180225606Y-52967259D01*
X180134394Y-53019920D01*
X180059920Y-53094394D01*
X180007259Y-53185606D01*
X179980000Y-53287339D01*
X179980000Y-53293552D01*
X179300974Y-52614526D01*
X179300973Y-52614526D01*
X179249868Y-52687512D01*
X179249866Y-52687516D01*
X179153734Y-52893673D01*
X179153730Y-52893682D01*
X179094860Y-53113389D01*
X179094858Y-53113400D01*
X179075034Y-53339997D01*
X179075034Y-53340002D01*
X179094858Y-53566599D01*
X179094860Y-53566610D01*
X179153730Y-53786317D01*
X179153735Y-53786331D01*
X179249863Y-53992478D01*
X179300974Y-54065472D01*
X179980000Y-53386446D01*
X179980000Y-53392661D01*
X180007259Y-53494394D01*
X180059920Y-53585606D01*
X180134394Y-53660080D01*
X180225606Y-53712741D01*
X180327339Y-53740000D01*
X180333553Y-53740000D01*
X179654526Y-54419025D01*
X179727513Y-54470132D01*
X179727521Y-54470136D01*
X179933668Y-54566264D01*
X179933682Y-54566269D01*
X180153389Y-54625139D01*
X180153400Y-54625141D01*
X180379998Y-54644966D01*
X180380002Y-54644966D01*
X180606599Y-54625141D01*
X180606610Y-54625139D01*
X180826317Y-54566269D01*
X180826331Y-54566264D01*
X181032478Y-54470136D01*
X181105471Y-54419024D01*
X180426447Y-53740000D01*
X180432661Y-53740000D01*
X180534394Y-53712741D01*
X180625606Y-53660080D01*
X180700080Y-53585606D01*
X180752741Y-53494394D01*
X180780000Y-53392661D01*
X180780000Y-53386447D01*
X181459024Y-54065471D01*
X181510134Y-53992481D01*
X181517340Y-53977028D01*
X181563511Y-53924587D01*
X181630704Y-53905433D01*
X181697585Y-53925646D01*
X181742105Y-53977022D01*
X181749430Y-53992730D01*
X181749432Y-53992734D01*
X181879954Y-54179141D01*
X182040858Y-54340045D01*
X182040861Y-54340047D01*
X182227266Y-54470568D01*
X182427907Y-54564129D01*
X182480344Y-54610299D01*
X182499500Y-54676509D01*
X182499500Y-57474695D01*
X182479815Y-57541734D01*
X182446623Y-57576270D01*
X182285378Y-57689174D01*
X182129175Y-57845377D01*
X182002466Y-58026338D01*
X182002462Y-58026345D01*
X181962104Y-58112892D01*
X181915931Y-58165331D01*
X181848738Y-58184482D01*
X181781857Y-58164265D01*
X181737341Y-58112890D01*
X181697098Y-58026589D01*
X181697097Y-58026587D01*
X181651741Y-57961811D01*
X181651740Y-57961810D01*
X180981000Y-58632551D01*
X180981000Y-58609840D01*
X180955036Y-58512939D01*
X180904876Y-58426060D01*
X180833940Y-58355124D01*
X180747061Y-58304964D01*
X180650160Y-58279000D01*
X180627448Y-58279000D01*
X181298188Y-57608259D01*
X181298187Y-57608258D01*
X181233411Y-57562901D01*
X181233405Y-57562898D01*
X181033284Y-57469580D01*
X181033270Y-57469575D01*
X180819986Y-57412426D01*
X180819976Y-57412424D01*
X180600001Y-57393179D01*
X180599999Y-57393179D01*
X180380023Y-57412424D01*
X180380013Y-57412426D01*
X180166729Y-57469575D01*
X180166720Y-57469579D01*
X179966590Y-57562901D01*
X179901811Y-57608258D01*
X180572553Y-58279000D01*
X180549840Y-58279000D01*
X180452939Y-58304964D01*
X180366060Y-58355124D01*
X180295124Y-58426060D01*
X180244964Y-58512939D01*
X180219000Y-58609840D01*
X180219000Y-58632553D01*
X179548258Y-57961811D01*
X179502901Y-58026590D01*
X179462658Y-58112891D01*
X179416485Y-58165330D01*
X179349292Y-58184482D01*
X179282411Y-58164266D01*
X179237894Y-58112891D01*
X179230413Y-58096849D01*
X179197534Y-58026339D01*
X179070826Y-57845380D01*
X178914620Y-57689174D01*
X178914616Y-57689171D01*
X178914615Y-57689170D01*
X178733666Y-57562468D01*
X178733662Y-57562466D01*
X178652953Y-57524831D01*
X178533450Y-57469106D01*
X178533447Y-57469105D01*
X178533445Y-57469104D01*
X178320070Y-57411930D01*
X178320062Y-57411929D01*
X178100002Y-57392677D01*
X178099998Y-57392677D01*
X177879937Y-57411929D01*
X177879929Y-57411930D01*
X177666554Y-57469104D01*
X177666548Y-57469107D01*
X177466340Y-57562465D01*
X177466338Y-57562466D01*
X177285377Y-57689175D01*
X177129175Y-57845377D01*
X177002466Y-58026338D01*
X177002465Y-58026340D01*
X176962382Y-58112299D01*
X176916209Y-58164738D01*
X176849016Y-58183890D01*
X176782135Y-58163674D01*
X176737618Y-58112299D01*
X176727356Y-58090293D01*
X176697534Y-58026339D01*
X176570826Y-57845380D01*
X176414620Y-57689174D01*
X176414616Y-57689171D01*
X176414615Y-57689170D01*
X176233666Y-57562468D01*
X176233662Y-57562466D01*
X176152953Y-57524831D01*
X176033450Y-57469106D01*
X176033447Y-57469105D01*
X176033445Y-57469104D01*
X175820070Y-57411930D01*
X175820062Y-57411929D01*
X175600002Y-57392677D01*
X175599998Y-57392677D01*
X175379937Y-57411929D01*
X175379929Y-57411930D01*
X175166554Y-57469104D01*
X175166548Y-57469107D01*
X174966340Y-57562465D01*
X174966338Y-57562466D01*
X174785377Y-57689175D01*
X174629175Y-57845377D01*
X174502466Y-58026338D01*
X174502465Y-58026340D01*
X174462382Y-58112299D01*
X174416209Y-58164738D01*
X174349016Y-58183890D01*
X174282135Y-58163674D01*
X174237618Y-58112299D01*
X174227356Y-58090293D01*
X174197534Y-58026339D01*
X174070826Y-57845380D01*
X173914620Y-57689174D01*
X173914616Y-57689171D01*
X173914615Y-57689170D01*
X173733666Y-57562468D01*
X173733662Y-57562466D01*
X173652953Y-57524831D01*
X173533450Y-57469106D01*
X173533447Y-57469105D01*
X173533445Y-57469104D01*
X173320070Y-57411930D01*
X173320062Y-57411929D01*
X173100002Y-57392677D01*
X173099998Y-57392677D01*
X172879937Y-57411929D01*
X172879929Y-57411930D01*
X172666554Y-57469104D01*
X172666548Y-57469107D01*
X172466340Y-57562465D01*
X172466338Y-57562466D01*
X172285377Y-57689175D01*
X172129175Y-57845377D01*
X172002466Y-58026338D01*
X172002465Y-58026340D01*
X171962382Y-58112299D01*
X171916209Y-58164738D01*
X171849016Y-58183890D01*
X171782135Y-58163674D01*
X171737618Y-58112299D01*
X171727356Y-58090293D01*
X171697534Y-58026339D01*
X171570826Y-57845380D01*
X171414620Y-57689174D01*
X171414616Y-57689171D01*
X171414615Y-57689170D01*
X171233666Y-57562468D01*
X171233662Y-57562466D01*
X171152953Y-57524831D01*
X171033450Y-57469106D01*
X171033447Y-57469105D01*
X171033445Y-57469104D01*
X170820070Y-57411930D01*
X170820062Y-57411929D01*
X170600002Y-57392677D01*
X170599998Y-57392677D01*
X170379937Y-57411929D01*
X170379929Y-57411930D01*
X170166554Y-57469104D01*
X170166548Y-57469107D01*
X169966340Y-57562465D01*
X169966338Y-57562466D01*
X169785377Y-57689175D01*
X169629175Y-57845377D01*
X169502466Y-58026338D01*
X169502465Y-58026340D01*
X169462382Y-58112299D01*
X169416209Y-58164738D01*
X169349016Y-58183890D01*
X169282135Y-58163674D01*
X169237618Y-58112299D01*
X169227356Y-58090293D01*
X169197534Y-58026339D01*
X169070826Y-57845380D01*
X168914620Y-57689174D01*
X168914616Y-57689171D01*
X168914615Y-57689170D01*
X168733666Y-57562468D01*
X168733662Y-57562466D01*
X168652953Y-57524831D01*
X168533450Y-57469106D01*
X168533447Y-57469105D01*
X168533445Y-57469104D01*
X168320070Y-57411930D01*
X168320062Y-57411929D01*
X168100002Y-57392677D01*
X168099998Y-57392677D01*
X167879937Y-57411929D01*
X167879929Y-57411930D01*
X167666554Y-57469104D01*
X167666548Y-57469107D01*
X167466340Y-57562465D01*
X167466338Y-57562466D01*
X167285377Y-57689175D01*
X167129175Y-57845377D01*
X167002466Y-58026338D01*
X167002465Y-58026340D01*
X166962382Y-58112299D01*
X166916209Y-58164738D01*
X166849016Y-58183890D01*
X166782135Y-58163674D01*
X166737618Y-58112299D01*
X166727356Y-58090293D01*
X166697534Y-58026339D01*
X166570826Y-57845380D01*
X166414620Y-57689174D01*
X166414616Y-57689171D01*
X166414615Y-57689170D01*
X166233666Y-57562468D01*
X166233662Y-57562466D01*
X166152953Y-57524831D01*
X166033450Y-57469106D01*
X166033447Y-57469105D01*
X166033445Y-57469104D01*
X165820070Y-57411930D01*
X165820062Y-57411929D01*
X165600002Y-57392677D01*
X165599998Y-57392677D01*
X165379937Y-57411929D01*
X165379929Y-57411930D01*
X165166554Y-57469104D01*
X165166548Y-57469107D01*
X164966340Y-57562465D01*
X164966338Y-57562466D01*
X164785377Y-57689175D01*
X164629175Y-57845377D01*
X164502466Y-58026338D01*
X164502465Y-58026340D01*
X164462382Y-58112299D01*
X164416209Y-58164738D01*
X164349016Y-58183890D01*
X164282135Y-58163674D01*
X164237618Y-58112299D01*
X164227356Y-58090293D01*
X164197534Y-58026339D01*
X164070826Y-57845380D01*
X163914620Y-57689174D01*
X163914616Y-57689171D01*
X163914615Y-57689170D01*
X163733666Y-57562468D01*
X163733662Y-57562466D01*
X163652953Y-57524831D01*
X163533450Y-57469106D01*
X163533447Y-57469105D01*
X163533445Y-57469104D01*
X163320070Y-57411930D01*
X163320062Y-57411929D01*
X163100002Y-57392677D01*
X163099998Y-57392677D01*
X162879937Y-57411929D01*
X162879929Y-57411930D01*
X162666554Y-57469104D01*
X162666548Y-57469107D01*
X162466340Y-57562465D01*
X162466338Y-57562466D01*
X162285377Y-57689175D01*
X162129175Y-57845377D01*
X162002466Y-58026338D01*
X162002465Y-58026340D01*
X161962382Y-58112299D01*
X161916209Y-58164738D01*
X161849016Y-58183890D01*
X161782135Y-58163674D01*
X161737618Y-58112299D01*
X161727356Y-58090293D01*
X161697534Y-58026339D01*
X161570826Y-57845380D01*
X161414620Y-57689174D01*
X161414616Y-57689171D01*
X161414615Y-57689170D01*
X161233666Y-57562468D01*
X161233662Y-57562466D01*
X161152953Y-57524831D01*
X161033450Y-57469106D01*
X161033447Y-57469105D01*
X161033445Y-57469104D01*
X160820070Y-57411930D01*
X160820062Y-57411929D01*
X160600002Y-57392677D01*
X160599998Y-57392677D01*
X160379937Y-57411929D01*
X160379929Y-57411930D01*
X160166554Y-57469104D01*
X160166548Y-57469107D01*
X159966340Y-57562465D01*
X159966338Y-57562466D01*
X159785377Y-57689175D01*
X159629175Y-57845377D01*
X159502466Y-58026338D01*
X159502465Y-58026340D01*
X159462382Y-58112299D01*
X159416209Y-58164738D01*
X159349016Y-58183890D01*
X159282135Y-58163674D01*
X159237618Y-58112299D01*
X159227356Y-58090293D01*
X159197534Y-58026339D01*
X159070826Y-57845380D01*
X158914620Y-57689174D01*
X158914616Y-57689171D01*
X158914615Y-57689170D01*
X158733666Y-57562468D01*
X158733662Y-57562466D01*
X158652953Y-57524831D01*
X158533450Y-57469106D01*
X158533447Y-57469105D01*
X158533445Y-57469104D01*
X158320070Y-57411930D01*
X158320062Y-57411929D01*
X158100002Y-57392677D01*
X158099998Y-57392677D01*
X157879937Y-57411929D01*
X157879929Y-57411930D01*
X157666554Y-57469104D01*
X157666548Y-57469107D01*
X157466340Y-57562465D01*
X157466338Y-57562466D01*
X157285377Y-57689175D01*
X157129175Y-57845377D01*
X157002466Y-58026338D01*
X157002465Y-58026340D01*
X156962382Y-58112299D01*
X156916209Y-58164738D01*
X156849016Y-58183890D01*
X156782135Y-58163674D01*
X156737618Y-58112299D01*
X156727356Y-58090293D01*
X156697534Y-58026339D01*
X156570826Y-57845380D01*
X156414620Y-57689174D01*
X156414616Y-57689171D01*
X156414615Y-57689170D01*
X156233666Y-57562468D01*
X156233662Y-57562466D01*
X156152953Y-57524831D01*
X156033450Y-57469106D01*
X156033447Y-57469105D01*
X156033445Y-57469104D01*
X155820070Y-57411930D01*
X155820062Y-57411929D01*
X155600002Y-57392677D01*
X155599998Y-57392677D01*
X155379937Y-57411929D01*
X155379929Y-57411930D01*
X155166554Y-57469104D01*
X155166548Y-57469107D01*
X154966340Y-57562465D01*
X154966338Y-57562466D01*
X154785377Y-57689175D01*
X154629175Y-57845377D01*
X154502466Y-58026338D01*
X154502465Y-58026340D01*
X154462382Y-58112299D01*
X154416209Y-58164738D01*
X154349016Y-58183890D01*
X154282135Y-58163674D01*
X154237618Y-58112299D01*
X154227356Y-58090293D01*
X154197534Y-58026339D01*
X154070826Y-57845380D01*
X153914620Y-57689174D01*
X153914616Y-57689171D01*
X153914615Y-57689170D01*
X153733666Y-57562468D01*
X153733662Y-57562466D01*
X153652953Y-57524831D01*
X153533450Y-57469106D01*
X153533447Y-57469105D01*
X153533445Y-57469104D01*
X153320070Y-57411930D01*
X153320062Y-57411929D01*
X153100002Y-57392677D01*
X153099998Y-57392677D01*
X152879937Y-57411929D01*
X152879929Y-57411930D01*
X152666554Y-57469104D01*
X152666543Y-57469108D01*
X152576404Y-57511141D01*
X152507327Y-57521633D01*
X152443543Y-57493113D01*
X152405304Y-57434636D01*
X152400000Y-57398759D01*
X152400000Y-55880000D01*
X136295596Y-55880000D01*
X136228557Y-55860315D01*
X136182802Y-55807511D01*
X136171745Y-55762085D01*
X136157807Y-55478371D01*
X136098805Y-55080610D01*
X136001099Y-54690548D01*
X135865631Y-54311940D01*
X135693706Y-53948434D01*
X135486978Y-53603530D01*
X135486976Y-53603526D01*
X135247446Y-53280556D01*
X135247443Y-53280552D01*
X134977397Y-52982602D01*
X134679447Y-52712556D01*
X134679443Y-52712553D01*
X134356473Y-52473023D01*
X134011569Y-52266296D01*
X134011570Y-52266296D01*
X134011566Y-52266294D01*
X133648060Y-52094369D01*
X133648040Y-52094361D01*
X133269462Y-51958904D01*
X133269456Y-51958902D01*
X133269452Y-51958901D01*
X132879390Y-51861195D01*
X132879389Y-51861194D01*
X132879386Y-51861194D01*
X132481637Y-51802194D01*
X132481635Y-51802193D01*
X132481629Y-51802193D01*
X132080000Y-51782462D01*
X131678371Y-51802193D01*
X131678365Y-51802193D01*
X131678362Y-51802194D01*
X131280613Y-51861194D01*
X131084029Y-51910436D01*
X130890548Y-51958901D01*
X130890545Y-51958901D01*
X130890537Y-51958904D01*
X130511959Y-52094361D01*
X130511939Y-52094369D01*
X130268661Y-52209431D01*
X130159685Y-52260973D01*
X130148430Y-52266296D01*
X129803526Y-52473023D01*
X129480556Y-52712553D01*
X129480552Y-52712556D01*
X129182602Y-52982602D01*
X128912556Y-53280552D01*
X128912553Y-53280556D01*
X128673023Y-53603526D01*
X128466296Y-53948430D01*
X128294369Y-54311939D01*
X128294361Y-54311959D01*
X128158904Y-54690537D01*
X128061194Y-55080613D01*
X128002194Y-55478362D01*
X128002193Y-55478371D01*
X127982462Y-55880000D01*
X127500500Y-55880000D01*
X127500500Y-51424500D01*
X127520185Y-51357461D01*
X127572989Y-51311706D01*
X127624500Y-51300500D01*
X202575500Y-51300500D01*
X202642539Y-51320185D01*
G37*
%TD.AperFunction*%
%TA.AperFunction,Conductor*%
G36*
X182490105Y-101020185D02*
G01*
X182535860Y-101072989D01*
X182545804Y-101142147D01*
X182531849Y-101182468D01*
X182532154Y-101182611D01*
X182530781Y-101185553D01*
X182530456Y-101186495D01*
X182529867Y-101187514D01*
X182433734Y-101393673D01*
X182433730Y-101393682D01*
X182381127Y-101589999D01*
X182381128Y-101590000D01*
X183344314Y-101590000D01*
X183339920Y-101594394D01*
X183287259Y-101685606D01*
X183260000Y-101787339D01*
X183260000Y-101892661D01*
X183287259Y-101994394D01*
X183339920Y-102085606D01*
X183344314Y-102090000D01*
X182381128Y-102090000D01*
X182433730Y-102286317D01*
X182433734Y-102286326D01*
X182529865Y-102492482D01*
X182660342Y-102678820D01*
X182821179Y-102839657D01*
X183007518Y-102970134D01*
X183007520Y-102970135D01*
X183065865Y-102997342D01*
X183118305Y-103043514D01*
X183137457Y-103110707D01*
X183117242Y-103177589D01*
X183065867Y-103222105D01*
X183007268Y-103249431D01*
X183007264Y-103249433D01*
X182820858Y-103379954D01*
X182659954Y-103540858D01*
X182529432Y-103727265D01*
X182529431Y-103727267D01*
X182433261Y-103933502D01*
X182433258Y-103933511D01*
X182374366Y-104153302D01*
X182374364Y-104153313D01*
X182354532Y-104379998D01*
X182354532Y-104380001D01*
X182374364Y-104606686D01*
X182374366Y-104606697D01*
X182433258Y-104826488D01*
X182433261Y-104826497D01*
X182529431Y-105032732D01*
X182529432Y-105032734D01*
X182659954Y-105219141D01*
X182820858Y-105380045D01*
X182820861Y-105380047D01*
X183007266Y-105510568D01*
X183065275Y-105537618D01*
X183117714Y-105583791D01*
X183136866Y-105650984D01*
X183116650Y-105717865D01*
X183065275Y-105762382D01*
X183007267Y-105789431D01*
X183007265Y-105789432D01*
X182820858Y-105919954D01*
X182659954Y-106080858D01*
X182529432Y-106267265D01*
X182529431Y-106267267D01*
X182433261Y-106473502D01*
X182433258Y-106473511D01*
X182374366Y-106693302D01*
X182374364Y-106693313D01*
X182354532Y-106919998D01*
X182354532Y-106920001D01*
X182374364Y-107146686D01*
X182374366Y-107146697D01*
X182433258Y-107366488D01*
X182433261Y-107366497D01*
X182529431Y-107572732D01*
X182529432Y-107572734D01*
X182659954Y-107759141D01*
X182820858Y-107920045D01*
X182820861Y-107920047D01*
X183007266Y-108050568D01*
X183065275Y-108077618D01*
X183117714Y-108123791D01*
X183136866Y-108190984D01*
X183116650Y-108257865D01*
X183065275Y-108302382D01*
X183007267Y-108329431D01*
X183007265Y-108329432D01*
X182820858Y-108459954D01*
X182659954Y-108620858D01*
X182529432Y-108807265D01*
X182529431Y-108807267D01*
X182433261Y-109013502D01*
X182433258Y-109013511D01*
X182374366Y-109233302D01*
X182374364Y-109233313D01*
X182354532Y-109459998D01*
X182374364Y-109686686D01*
X182374366Y-109686697D01*
X182433258Y-109906488D01*
X182433261Y-109906497D01*
X182529431Y-110112732D01*
X182529432Y-110112734D01*
X182659954Y-110299141D01*
X182820858Y-110460045D01*
X182820861Y-110460047D01*
X183007266Y-110590568D01*
X183065275Y-110617618D01*
X183117714Y-110663791D01*
X183136866Y-110730984D01*
X183116650Y-110797865D01*
X183065275Y-110842382D01*
X183007267Y-110869431D01*
X183007265Y-110869432D01*
X182820858Y-110999954D01*
X182659954Y-111160858D01*
X182529432Y-111347265D01*
X182529431Y-111347267D01*
X182433261Y-111553502D01*
X182433258Y-111553511D01*
X182374366Y-111773302D01*
X182374364Y-111773313D01*
X182354532Y-111999998D01*
X182354532Y-112000001D01*
X182374364Y-112226686D01*
X182374366Y-112226697D01*
X182433258Y-112446488D01*
X182433261Y-112446496D01*
X182529432Y-112652734D01*
X182529435Y-112652738D01*
X182529870Y-112653492D01*
X182529961Y-112653868D01*
X182531720Y-112657640D01*
X182530962Y-112657993D01*
X182546348Y-112721391D01*
X182523501Y-112787419D01*
X182468583Y-112830614D01*
X182422488Y-112839500D01*
X172197512Y-112839500D01*
X172130473Y-112819815D01*
X172084718Y-112767011D01*
X172074774Y-112697853D01*
X172088636Y-112657806D01*
X172088280Y-112657640D01*
X172089887Y-112654193D01*
X172090130Y-112653492D01*
X172090559Y-112652746D01*
X172090568Y-112652734D01*
X172186739Y-112446496D01*
X172245635Y-112226692D01*
X172265468Y-112000000D01*
X172245635Y-111773308D01*
X172186739Y-111553504D01*
X172090568Y-111347266D01*
X171960047Y-111160861D01*
X171960045Y-111160858D01*
X171799141Y-110999954D01*
X171612734Y-110869432D01*
X171612728Y-110869429D01*
X171554725Y-110842382D01*
X171502285Y-110796210D01*
X171483133Y-110729017D01*
X171503348Y-110662135D01*
X171554725Y-110617618D01*
X171612734Y-110590568D01*
X171799139Y-110460047D01*
X171960047Y-110299139D01*
X172090568Y-110112734D01*
X172186739Y-109906496D01*
X172245635Y-109686692D01*
X172265468Y-109460000D01*
X172245635Y-109233308D01*
X172186739Y-109013504D01*
X172090568Y-108807266D01*
X171960047Y-108620861D01*
X171960045Y-108620858D01*
X171799141Y-108459954D01*
X171612734Y-108329432D01*
X171612728Y-108329429D01*
X171554725Y-108302382D01*
X171502285Y-108256210D01*
X171483133Y-108189017D01*
X171503348Y-108122135D01*
X171554725Y-108077618D01*
X171612734Y-108050568D01*
X171799139Y-107920047D01*
X171960047Y-107759139D01*
X172090568Y-107572734D01*
X172186739Y-107366496D01*
X172245635Y-107146692D01*
X172265468Y-106920000D01*
X172245635Y-106693308D01*
X172186739Y-106473504D01*
X172090568Y-106267266D01*
X171960047Y-106080861D01*
X171960045Y-106080858D01*
X171799141Y-105919954D01*
X171612734Y-105789432D01*
X171612728Y-105789429D01*
X171554725Y-105762382D01*
X171502285Y-105716210D01*
X171483133Y-105649017D01*
X171503348Y-105582135D01*
X171554725Y-105537618D01*
X171612734Y-105510568D01*
X171799139Y-105380047D01*
X171960047Y-105219139D01*
X172090568Y-105032734D01*
X172186739Y-104826496D01*
X172245635Y-104606692D01*
X172265468Y-104380000D01*
X172245635Y-104153308D01*
X172186739Y-103933504D01*
X172090568Y-103727266D01*
X171960047Y-103540861D01*
X171960045Y-103540858D01*
X171799141Y-103379954D01*
X171612734Y-103249432D01*
X171612728Y-103249429D01*
X171554725Y-103222382D01*
X171502285Y-103176210D01*
X171483133Y-103109017D01*
X171503348Y-103042135D01*
X171554725Y-102997618D01*
X171555319Y-102997341D01*
X171612734Y-102970568D01*
X171799139Y-102840047D01*
X171960047Y-102679139D01*
X172090568Y-102492734D01*
X172186739Y-102286496D01*
X172245635Y-102066692D01*
X172265468Y-101840000D01*
X172245635Y-101613308D01*
X172186739Y-101393504D01*
X172090568Y-101187266D01*
X172090562Y-101187257D01*
X172090130Y-101186508D01*
X172090038Y-101186131D01*
X172088280Y-101182360D01*
X172089037Y-101182006D01*
X172073652Y-101118609D01*
X172096499Y-101052581D01*
X172151417Y-101009386D01*
X172197512Y-101000500D01*
X182423066Y-101000500D01*
X182490105Y-101020185D01*
G37*
%TD.AperFunction*%
%TA.AperFunction,Conductor*%
G36*
X157009124Y-99680185D02*
G01*
X157029766Y-99696819D01*
X157229480Y-99896532D01*
X158097322Y-100764374D01*
X158097332Y-100764385D01*
X158101662Y-100768715D01*
X158101663Y-100768716D01*
X158213467Y-100880520D01*
X158300278Y-100930639D01*
X158300280Y-100930641D01*
X158338334Y-100952611D01*
X158350398Y-100959577D01*
X158503126Y-101000501D01*
X158503129Y-101000501D01*
X158668836Y-101000501D01*
X158668852Y-101000500D01*
X159563066Y-101000500D01*
X159630105Y-101020185D01*
X159675860Y-101072989D01*
X159685804Y-101142147D01*
X159671849Y-101182468D01*
X159672154Y-101182611D01*
X159670781Y-101185553D01*
X159670456Y-101186495D01*
X159669867Y-101187514D01*
X159573734Y-101393673D01*
X159573730Y-101393682D01*
X159521127Y-101589999D01*
X159521128Y-101590000D01*
X160484314Y-101590000D01*
X160479920Y-101594394D01*
X160427259Y-101685606D01*
X160400000Y-101787339D01*
X160400000Y-101892661D01*
X160427259Y-101994394D01*
X160479920Y-102085606D01*
X160484314Y-102090000D01*
X159521128Y-102090000D01*
X159573730Y-102286317D01*
X159573734Y-102286326D01*
X159669865Y-102492482D01*
X159800342Y-102678820D01*
X159961179Y-102839657D01*
X160147518Y-102970134D01*
X160147520Y-102970135D01*
X160205865Y-102997342D01*
X160258305Y-103043514D01*
X160277457Y-103110707D01*
X160257242Y-103177589D01*
X160205867Y-103222105D01*
X160147268Y-103249431D01*
X160147264Y-103249433D01*
X159960858Y-103379954D01*
X159799954Y-103540858D01*
X159669432Y-103727265D01*
X159669431Y-103727267D01*
X159573261Y-103933502D01*
X159573258Y-103933511D01*
X159514366Y-104153302D01*
X159514364Y-104153313D01*
X159494532Y-104379998D01*
X159494532Y-104380001D01*
X159514364Y-104606686D01*
X159514366Y-104606697D01*
X159573258Y-104826488D01*
X159573261Y-104826497D01*
X159669431Y-105032732D01*
X159669432Y-105032734D01*
X159799954Y-105219141D01*
X159960858Y-105380045D01*
X159960861Y-105380047D01*
X160147266Y-105510568D01*
X160205275Y-105537618D01*
X160257714Y-105583791D01*
X160276866Y-105650984D01*
X160256650Y-105717865D01*
X160205275Y-105762382D01*
X160147267Y-105789431D01*
X160147265Y-105789432D01*
X159960858Y-105919954D01*
X159799954Y-106080858D01*
X159669432Y-106267265D01*
X159669431Y-106267267D01*
X159573261Y-106473502D01*
X159573258Y-106473511D01*
X159514366Y-106693302D01*
X159514364Y-106693313D01*
X159494532Y-106919998D01*
X159494532Y-106920001D01*
X159514364Y-107146686D01*
X159514366Y-107146697D01*
X159573258Y-107366488D01*
X159573261Y-107366497D01*
X159669431Y-107572732D01*
X159669432Y-107572734D01*
X159799954Y-107759141D01*
X159960858Y-107920045D01*
X159960861Y-107920047D01*
X160147266Y-108050568D01*
X160205275Y-108077618D01*
X160257714Y-108123791D01*
X160276866Y-108190984D01*
X160256650Y-108257865D01*
X160205275Y-108302382D01*
X160147267Y-108329431D01*
X160147265Y-108329432D01*
X159960858Y-108459954D01*
X159799954Y-108620858D01*
X159669432Y-108807265D01*
X159669431Y-108807267D01*
X159573261Y-109013502D01*
X159573258Y-109013511D01*
X159514366Y-109233302D01*
X159514364Y-109233313D01*
X159494532Y-109459998D01*
X159514364Y-109686686D01*
X159514366Y-109686697D01*
X159545638Y-109803407D01*
X159543975Y-109873257D01*
X159504812Y-109931119D01*
X159440583Y-109958623D01*
X159425863Y-109959500D01*
X149500097Y-109959500D01*
X149433058Y-109939815D01*
X149412416Y-109923181D01*
X149391941Y-109902706D01*
X149358456Y-109841383D01*
X149359847Y-109782931D01*
X149385635Y-109686692D01*
X149405468Y-109460000D01*
X149385635Y-109233308D01*
X149326739Y-109013504D01*
X149230568Y-108807266D01*
X149100047Y-108620861D01*
X149100045Y-108620858D01*
X148939141Y-108459954D01*
X148752734Y-108329432D01*
X148752728Y-108329429D01*
X148694725Y-108302382D01*
X148642285Y-108256210D01*
X148623133Y-108189017D01*
X148643348Y-108122135D01*
X148694725Y-108077618D01*
X148752734Y-108050568D01*
X148939139Y-107920047D01*
X149100047Y-107759139D01*
X149230568Y-107572734D01*
X149326739Y-107366496D01*
X149385635Y-107146692D01*
X149405468Y-106920000D01*
X149385635Y-106693308D01*
X149326739Y-106473504D01*
X149230568Y-106267266D01*
X149100047Y-106080861D01*
X149100045Y-106080858D01*
X148939141Y-105919954D01*
X148752734Y-105789432D01*
X148752728Y-105789429D01*
X148694725Y-105762382D01*
X148642285Y-105716210D01*
X148623133Y-105649017D01*
X148643348Y-105582135D01*
X148694725Y-105537618D01*
X148752734Y-105510568D01*
X148939139Y-105380047D01*
X149100047Y-105219139D01*
X149230568Y-105032734D01*
X149326739Y-104826496D01*
X149385635Y-104606692D01*
X149405468Y-104380000D01*
X149385635Y-104153308D01*
X149326739Y-103933504D01*
X149230568Y-103727266D01*
X149100047Y-103540861D01*
X149100045Y-103540858D01*
X148939141Y-103379954D01*
X148752734Y-103249432D01*
X148752728Y-103249429D01*
X148694725Y-103222382D01*
X148642285Y-103176210D01*
X148623133Y-103109017D01*
X148643348Y-103042135D01*
X148694725Y-102997618D01*
X148695319Y-102997341D01*
X148752734Y-102970568D01*
X148939139Y-102840047D01*
X149100047Y-102679139D01*
X149230568Y-102492734D01*
X149326739Y-102286496D01*
X149385635Y-102066692D01*
X149405468Y-101840000D01*
X149385635Y-101613308D01*
X149326739Y-101393504D01*
X149230568Y-101187266D01*
X149100047Y-101000861D01*
X149100045Y-101000858D01*
X148939141Y-100839954D01*
X148752734Y-100709432D01*
X148752728Y-100709429D01*
X148694725Y-100682382D01*
X148642285Y-100636210D01*
X148623133Y-100569017D01*
X148643348Y-100502135D01*
X148694725Y-100457618D01*
X148752734Y-100430568D01*
X148939139Y-100300047D01*
X149100047Y-100139139D01*
X149230568Y-99952734D01*
X149326739Y-99746496D01*
X149326741Y-99746488D01*
X149328345Y-99742084D01*
X149369774Y-99685822D01*
X149435043Y-99660890D01*
X149444865Y-99660500D01*
X156942085Y-99660500D01*
X157009124Y-99680185D01*
G37*
%TD.AperFunction*%
%TA.AperFunction,Conductor*%
G36*
X169795347Y-99920185D02*
G01*
X169829880Y-99953374D01*
X169915480Y-100075624D01*
X169959954Y-100139141D01*
X170120858Y-100300045D01*
X170120861Y-100300047D01*
X170307266Y-100430568D01*
X170365275Y-100457618D01*
X170417714Y-100503791D01*
X170436866Y-100570984D01*
X170416650Y-100637865D01*
X170365275Y-100682382D01*
X170307267Y-100709431D01*
X170307265Y-100709432D01*
X170120858Y-100839954D01*
X169959954Y-101000858D01*
X169829432Y-101187265D01*
X169829431Y-101187267D01*
X169733261Y-101393502D01*
X169733258Y-101393511D01*
X169674366Y-101613302D01*
X169674364Y-101613313D01*
X169654532Y-101839998D01*
X169654532Y-101840001D01*
X169674364Y-102066686D01*
X169674366Y-102066697D01*
X169733258Y-102286488D01*
X169733261Y-102286497D01*
X169829431Y-102492732D01*
X169829432Y-102492734D01*
X169959954Y-102679141D01*
X170120858Y-102840045D01*
X170120861Y-102840047D01*
X170307266Y-102970568D01*
X170364681Y-102997341D01*
X170365275Y-102997618D01*
X170417714Y-103043791D01*
X170436866Y-103110984D01*
X170416650Y-103177865D01*
X170365275Y-103222382D01*
X170307267Y-103249431D01*
X170307265Y-103249432D01*
X170120858Y-103379954D01*
X169959954Y-103540858D01*
X169829432Y-103727265D01*
X169829431Y-103727267D01*
X169733261Y-103933502D01*
X169733258Y-103933511D01*
X169674366Y-104153302D01*
X169674364Y-104153313D01*
X169654532Y-104379998D01*
X169654532Y-104380001D01*
X169674364Y-104606686D01*
X169674366Y-104606697D01*
X169733258Y-104826488D01*
X169733261Y-104826497D01*
X169829431Y-105032732D01*
X169829432Y-105032734D01*
X169959954Y-105219141D01*
X170120858Y-105380045D01*
X170120861Y-105380047D01*
X170307266Y-105510568D01*
X170365275Y-105537618D01*
X170417714Y-105583791D01*
X170436866Y-105650984D01*
X170416650Y-105717865D01*
X170365275Y-105762382D01*
X170307267Y-105789431D01*
X170307265Y-105789432D01*
X170120858Y-105919954D01*
X169959954Y-106080858D01*
X169829432Y-106267265D01*
X169829431Y-106267267D01*
X169733261Y-106473502D01*
X169733258Y-106473511D01*
X169674366Y-106693302D01*
X169674364Y-106693313D01*
X169654532Y-106919998D01*
X169654532Y-106920001D01*
X169674364Y-107146686D01*
X169674366Y-107146697D01*
X169733258Y-107366488D01*
X169733261Y-107366497D01*
X169829431Y-107572732D01*
X169829432Y-107572734D01*
X169959954Y-107759141D01*
X170120858Y-107920045D01*
X170120861Y-107920047D01*
X170307266Y-108050568D01*
X170365275Y-108077618D01*
X170417714Y-108123791D01*
X170436866Y-108190984D01*
X170416650Y-108257865D01*
X170365275Y-108302382D01*
X170307267Y-108329431D01*
X170307265Y-108329432D01*
X170120858Y-108459954D01*
X169959954Y-108620858D01*
X169829432Y-108807265D01*
X169829431Y-108807267D01*
X169733261Y-109013502D01*
X169733258Y-109013511D01*
X169674366Y-109233302D01*
X169674364Y-109233313D01*
X169654532Y-109459998D01*
X169674364Y-109686686D01*
X169674366Y-109686697D01*
X169700152Y-109782931D01*
X169698489Y-109852781D01*
X169668060Y-109902703D01*
X169647585Y-109923179D01*
X169586263Y-109956666D01*
X169559902Y-109959500D01*
X162174137Y-109959500D01*
X162107098Y-109939815D01*
X162061343Y-109887011D01*
X162051399Y-109817853D01*
X162054362Y-109803407D01*
X162083366Y-109695159D01*
X162085635Y-109686692D01*
X162105468Y-109460000D01*
X162085635Y-109233308D01*
X162026739Y-109013504D01*
X161930568Y-108807266D01*
X161800047Y-108620861D01*
X161800045Y-108620858D01*
X161639141Y-108459954D01*
X161452734Y-108329432D01*
X161452728Y-108329429D01*
X161394725Y-108302382D01*
X161342285Y-108256210D01*
X161323133Y-108189017D01*
X161343348Y-108122135D01*
X161394725Y-108077618D01*
X161452734Y-108050568D01*
X161639139Y-107920047D01*
X161800047Y-107759139D01*
X161930568Y-107572734D01*
X162026739Y-107366496D01*
X162085635Y-107146692D01*
X162105468Y-106920000D01*
X162085635Y-106693308D01*
X162026739Y-106473504D01*
X161930568Y-106267266D01*
X161800047Y-106080861D01*
X161800045Y-106080858D01*
X161639141Y-105919954D01*
X161452734Y-105789432D01*
X161452728Y-105789429D01*
X161394725Y-105762382D01*
X161342285Y-105716210D01*
X161323133Y-105649017D01*
X161343348Y-105582135D01*
X161394725Y-105537618D01*
X161452734Y-105510568D01*
X161639139Y-105380047D01*
X161800047Y-105219139D01*
X161930568Y-105032734D01*
X162026739Y-104826496D01*
X162085635Y-104606692D01*
X162105468Y-104380000D01*
X162085635Y-104153308D01*
X162026739Y-103933504D01*
X161930568Y-103727266D01*
X161800047Y-103540861D01*
X161800045Y-103540858D01*
X161639141Y-103379954D01*
X161452734Y-103249432D01*
X161452732Y-103249431D01*
X161394725Y-103222382D01*
X161394132Y-103222105D01*
X161341694Y-103175934D01*
X161322542Y-103108740D01*
X161342758Y-103041859D01*
X161394134Y-102997341D01*
X161452484Y-102970132D01*
X161638820Y-102839657D01*
X161799657Y-102678820D01*
X161930134Y-102492482D01*
X162026265Y-102286326D01*
X162026269Y-102286317D01*
X162078872Y-102090000D01*
X161115686Y-102090000D01*
X161120080Y-102085606D01*
X161172741Y-101994394D01*
X161200000Y-101892661D01*
X161200000Y-101787339D01*
X161172741Y-101685606D01*
X161120080Y-101594394D01*
X161115686Y-101590000D01*
X162078872Y-101590000D01*
X162078872Y-101589999D01*
X162026269Y-101393682D01*
X162026265Y-101393673D01*
X161930132Y-101187514D01*
X161929544Y-101186495D01*
X161929421Y-101185989D01*
X161927846Y-101182611D01*
X161928525Y-101182294D01*
X161913075Y-101118594D01*
X161935930Y-101052568D01*
X161990853Y-101009380D01*
X162036934Y-101000500D01*
X167233331Y-101000500D01*
X167233347Y-101000501D01*
X167240943Y-101000501D01*
X167399054Y-101000501D01*
X167399057Y-101000501D01*
X167551785Y-100959577D01*
X167601904Y-100930639D01*
X167688716Y-100880520D01*
X167800520Y-100768716D01*
X167800520Y-100768714D01*
X167810728Y-100758507D01*
X167810729Y-100758504D01*
X168632416Y-99936819D01*
X168693739Y-99903334D01*
X168720097Y-99900500D01*
X169728308Y-99900500D01*
X169795347Y-99920185D01*
G37*
%TD.AperFunction*%
%TA.AperFunction,Conductor*%
G36*
X180824809Y-97530185D02*
G01*
X180845451Y-97546819D01*
X182333282Y-99034650D01*
X182366767Y-99095973D01*
X182369129Y-99133137D01*
X182354532Y-99299996D01*
X182354532Y-99300001D01*
X182374364Y-99526686D01*
X182374366Y-99526697D01*
X182405638Y-99643407D01*
X182403975Y-99713257D01*
X182364812Y-99771119D01*
X182300583Y-99798623D01*
X182285863Y-99799500D01*
X172360097Y-99799500D01*
X172293058Y-99779815D01*
X172272416Y-99763181D01*
X172251941Y-99742706D01*
X172218456Y-99681383D01*
X172219847Y-99622931D01*
X172245635Y-99526692D01*
X172265468Y-99300000D01*
X172245635Y-99073308D01*
X172186739Y-98853504D01*
X172090568Y-98647266D01*
X171960047Y-98460861D01*
X171960045Y-98460858D01*
X171799141Y-98299954D01*
X171612734Y-98169432D01*
X171612732Y-98169431D01*
X171406497Y-98073261D01*
X171406488Y-98073258D01*
X171186697Y-98014366D01*
X171186693Y-98014365D01*
X171186692Y-98014365D01*
X171186691Y-98014364D01*
X171186686Y-98014364D01*
X170960002Y-97994532D01*
X170959998Y-97994532D01*
X170733313Y-98014364D01*
X170733302Y-98014366D01*
X170513511Y-98073258D01*
X170513502Y-98073261D01*
X170307267Y-98169431D01*
X170307265Y-98169432D01*
X170120858Y-98299954D01*
X169959954Y-98460858D01*
X169934912Y-98496623D01*
X169829881Y-98646624D01*
X169775307Y-98690248D01*
X169728308Y-98699500D01*
X168506669Y-98699500D01*
X168506653Y-98699499D01*
X168499057Y-98699499D01*
X168340943Y-98699499D01*
X168233587Y-98728265D01*
X168188210Y-98740424D01*
X168188209Y-98740425D01*
X168138096Y-98769359D01*
X168138095Y-98769360D01*
X168094689Y-98794420D01*
X168051285Y-98819479D01*
X168051282Y-98819481D01*
X167939478Y-98931286D01*
X167107584Y-99763181D01*
X167046261Y-99796666D01*
X167019903Y-99799500D01*
X162174137Y-99799500D01*
X162107098Y-99779815D01*
X162061343Y-99727011D01*
X162051399Y-99657853D01*
X162054362Y-99643407D01*
X162083298Y-99535413D01*
X162085635Y-99526692D01*
X162105468Y-99300000D01*
X162090869Y-99133137D01*
X162104635Y-99064639D01*
X162126713Y-99034653D01*
X163614548Y-97546819D01*
X163675871Y-97513334D01*
X163702229Y-97510500D01*
X180757770Y-97510500D01*
X180824809Y-97530185D01*
G37*
%TD.AperFunction*%
%TD*%
%TA.AperFunction,Conductor*%
%TO.N,GND*%
G36*
X128002193Y-56281629D02*
G01*
X128002193Y-56281635D01*
X128002194Y-56281637D01*
X128061194Y-56679386D01*
X128158904Y-57069462D01*
X128294361Y-57448040D01*
X128294369Y-57448060D01*
X128466294Y-57811566D01*
X128466296Y-57811569D01*
X128673023Y-58156473D01*
X128912553Y-58479443D01*
X128912556Y-58479447D01*
X129182602Y-58777397D01*
X129480552Y-59047443D01*
X129480556Y-59047446D01*
X129803526Y-59286976D01*
X129940630Y-59369152D01*
X130148434Y-59493706D01*
X130511940Y-59665631D01*
X130511954Y-59665636D01*
X130511959Y-59665638D01*
X130799195Y-59768412D01*
X130890548Y-59801099D01*
X131280610Y-59898805D01*
X131678371Y-59957807D01*
X131962087Y-59971745D01*
X132028077Y-59994695D01*
X132071186Y-60049680D01*
X132080000Y-60095595D01*
X132080000Y-91440000D01*
X127500500Y-91440000D01*
X127500500Y-55880000D01*
X127982462Y-55880000D01*
X128002193Y-56281629D01*
G37*
%TD.AperFunction*%
%TD*%
M02*
